<svg width="96" height="96" viewBox="0 0 96 96" fill="none" xmlns="http://www.w3.org/2000/svg">
<rect width="96" height="96" rx="24" fill="#06C755"/>
<path d="M75.9974 44.2759C75.9974 31.7475 63.4375 21.5547 47.9987 21.5547C32.5599 21.5547 20 31.7475 20 44.2759C20 55.5079 29.9619 64.9134 43.4167 66.6927C44.3273 66.8895 45.5686 67.2937 45.8835 68.0731C46.1669 68.7817 46.0672 69.8891 45.9753 70.6055C45.9753 70.6055 45.6473 72.5816 45.5765 73.0015C45.4531 73.7101 45.0149 75.7702 48.0013 74.5105C50.9904 73.2508 64.125 65.0158 69.9982 58.2556C74.0554 53.8047 76 49.2909 76 44.2759H75.9974Z" fill="white"/>
<path d="M66.6777 51.5141H58.8127C58.5162 51.5141 58.2773 51.2753 58.2773 50.9787V50.9708V38.7731V38.76C58.2773 38.4634 58.5162 38.2246 58.8127 38.2246H66.6777C66.9717 38.2246 67.2131 38.466 67.2131 38.76V40.7466C67.2131 41.0431 66.9743 41.2819 66.6777 41.2819H61.332V43.3446H66.6777C66.9717 43.3446 67.2131 43.5861 67.2131 43.88V45.8666C67.2131 46.1631 66.9743 46.4019 66.6777 46.4019H61.332V48.4646H66.6777C66.9717 48.4646 67.2131 48.7061 67.2131 49V50.9866C67.2131 51.2831 66.9743 51.522 66.6777 51.522V51.5141Z" fill="#06C755"/>
<path d="M37.5827 51.5128C37.8766 51.5128 38.1181 51.274 38.1181 50.9774V48.9908C38.1181 48.6969 37.8766 48.4555 37.5827 48.4555H32.237V38.7561C32.237 38.4621 31.9956 38.2207 31.7016 38.2207H29.715C29.4185 38.2207 29.1797 38.4595 29.1797 38.7561V50.9669V50.9774C29.1797 51.274 29.4185 51.5128 29.715 51.5128H37.5801H37.5827Z" fill="#06C755"/>
<path d="M42.324 38.2246H40.34C40.0444 38.2246 39.8047 38.4643 39.8047 38.76V50.9787C39.8047 51.2744 40.0444 51.5141 40.34 51.5141H42.324C42.6197 51.5141 42.8594 51.2744 42.8594 50.9787V38.76C42.8594 38.4643 42.6197 38.2246 42.324 38.2246Z" fill="#06C755"/>
<path d="M55.8337 38.2246H53.8471C53.5505 38.2246 53.3117 38.4634 53.3117 38.76V46.0162L47.7219 38.466C47.7088 38.4477 47.6931 38.4293 47.6799 38.4109C47.6799 38.4109 47.6799 38.4109 47.6773 38.4083C47.6668 38.3978 47.6563 38.3847 47.6458 38.3742C47.6432 38.3716 47.638 38.3689 47.6353 38.3663C47.6248 38.3584 47.617 38.3506 47.6065 38.3427C47.6012 38.3401 47.596 38.3348 47.5907 38.3322C47.5828 38.3243 47.5724 38.3191 47.5619 38.3138C47.5566 38.3112 47.5514 38.306 47.5461 38.3033C47.5356 38.2981 47.5277 38.2928 47.5172 38.2876C47.512 38.285 47.5067 38.2823 47.5015 38.2797C47.491 38.2745 47.4805 38.2692 47.47 38.2666C47.4648 38.2666 47.4595 38.2613 47.4516 38.2613C47.4411 38.2587 47.4306 38.2535 47.4201 38.2509C47.4149 38.2509 47.407 38.2482 47.4018 38.2456C47.3913 38.2456 47.3808 38.2404 47.3703 38.2377C47.3624 38.2377 47.3545 38.2377 47.3467 38.2351C47.3362 38.2351 47.3283 38.2325 47.3178 38.2325C47.3073 38.2325 47.2994 38.2325 47.2889 38.2325C47.2837 38.2325 47.2758 38.2325 47.2706 38.2325H45.2971C45.0032 38.2325 44.7617 38.4713 44.7617 38.7678V50.9866C44.7617 51.2805 45.0005 51.522 45.2971 51.522H47.2837C47.5802 51.522 47.819 51.2831 47.819 50.9866V43.7304L53.4167 51.291C53.456 51.3461 53.5033 51.3907 53.5558 51.4249C53.5558 51.4249 53.561 51.4275 53.561 51.4301C53.5715 51.438 53.582 51.4432 53.5951 51.4511C53.6004 51.4537 53.6056 51.4563 53.6109 51.459C53.6187 51.4642 53.6292 51.4668 53.6371 51.4721C53.645 51.4773 53.6555 51.48 53.6634 51.4826C53.6686 51.4826 53.6739 51.4878 53.6791 51.4878C53.6922 51.4931 53.7027 51.4957 53.7158 51.4983C53.7158 51.4983 53.7211 51.4983 53.7237 51.4983C53.7683 51.5088 53.8156 51.5167 53.8628 51.5167H55.8363C56.1302 51.5167 56.3716 51.2779 56.3716 50.9813V38.7626C56.3716 38.4687 56.1328 38.2272 55.8363 38.2272L55.8337 38.2246Z" fill="#06C755"/>
</svg>
