<svg width="96" height="96" viewBox="0 0 96 96" fill="none" xmlns="http://www.w3.org/2000/svg">
<mask id="mask0_808_11866" style="mask-type:alpha" maskUnits="userSpaceOnUse" x="0" y="0" width="96" height="96">
<rect width="96" height="96" rx="24" fill="#D9D9D9"/>
</mask>
<g mask="url(#mask0_808_11866)">
<path d="M48.0157 0C27.9761 0 22.1153 0.0206787 20.9761 0.11521C16.8636 0.457146 14.3046 1.10483 11.5167 2.49326C9.36817 3.56042 7.67372 4.79745 6.00142 6.53151C2.95583 9.69387 1.11003 13.5844 0.441845 18.209C0.116983 20.4542 0.0224778 20.912 0.00328143 32.3798C-0.00410179 36.2024 0.00328143 41.2333 0.00328143 47.9812C0.00328143 68.0099 0.0254311 73.8664 0.121413 75.0038C0.453658 79.0066 1.08123 81.5249 2.41021 84.2796C4.95004 89.5527 9.80082 93.5112 15.5154 94.9882C17.4941 95.4978 19.6796 95.7784 22.4852 95.9114C23.6739 95.9631 35.7898 96 47.913 96C60.0363 96 72.1596 95.9852 73.3187 95.9262C76.5673 95.7733 78.4538 95.52 80.5395 94.9808C86.2911 93.4964 91.0532 89.597 93.6448 84.2501C94.9479 81.5619 95.6087 78.9475 95.9077 75.1537C95.9727 74.3265 96 61.1387 96 47.9686C96 34.7963 95.9705 21.6328 95.9055 20.8057C95.6028 16.9506 94.942 14.3584 93.5968 11.6185C92.493 9.37556 91.2673 7.70059 89.488 5.98795C86.3125 2.9541 82.4289 1.10779 77.8011 0.44016C75.5588 0.115948 75.1121 0.0199401 63.6386 0H48.0157Z" fill="url(#paint0_radial_808_11866)"/>
<path d="M48.0157 0C27.9761 0 22.1153 0.0206787 20.9761 0.11521C16.8636 0.457146 14.3046 1.10483 11.5167 2.49326C9.36817 3.56042 7.67372 4.79745 6.00142 6.53151C2.95583 9.69387 1.11003 13.5844 0.441845 18.209C0.116983 20.4542 0.0224778 20.912 0.00328143 32.3798C-0.00410179 36.2024 0.00328143 41.2333 0.00328143 47.9812C0.00328143 68.0099 0.0254311 73.8664 0.121413 75.0038C0.453658 79.0066 1.08123 81.5249 2.41021 84.2796C4.95004 89.5527 9.80082 93.5112 15.5154 94.9882C17.4941 95.4978 19.6796 95.7784 22.4852 95.9114C23.6739 95.9631 35.7898 96 47.913 96C60.0363 96 72.1596 95.9852 73.3187 95.9262C76.5673 95.7733 78.4538 95.52 80.5395 94.9808C86.2911 93.4964 91.0532 89.597 93.6448 84.2501C94.9479 81.5619 95.6087 78.9475 95.9077 75.1537C95.9727 74.3265 96 61.1387 96 47.9686C96 34.7963 95.9705 21.6328 95.9055 20.8057C95.6028 16.9506 94.942 14.3584 93.5968 11.6185C92.493 9.37556 91.2673 7.70059 89.488 5.98795C86.3125 2.9541 82.4289 1.10779 77.8011 0.44016C75.5588 0.115948 75.1121 0.0199401 63.6386 0H48.0157Z" fill="url(#paint1_radial_808_11866)"/>
<path d="M47.9932 12.5547C38.3684 12.5547 37.1606 12.5968 33.3803 12.7689C29.6075 12.9417 27.0322 13.5391 24.7789 14.4158C22.448 15.3212 20.4708 16.5324 18.5009 18.5035C16.5296 20.4739 15.3188 22.4516 14.4106 24.7824C13.532 27.0371 12.934 29.6139 12.7642 33.3862C12.5951 37.1675 12.5508 38.3764 12.5508 48.0038C12.5508 57.6312 12.5936 58.8358 12.7649 62.617C12.9384 66.3909 13.5357 68.9669 14.4114 71.2208C15.3173 73.5523 16.5281 75.5301 18.4987 77.5005C20.4678 79.4724 22.445 80.6865 24.7745 81.5919C27.0293 82.4686 29.6053 83.066 33.3774 83.2388C37.1576 83.4109 38.3648 83.453 47.9888 83.453C57.6143 83.453 58.8185 83.4109 62.5987 83.2388C66.3716 83.066 68.9498 82.4686 71.2046 81.5919C73.5348 80.6865 75.509 79.4724 77.4781 77.5005C79.4495 75.5301 80.6603 73.5524 81.5685 71.2216C82.4397 68.9669 83.0377 66.3901 83.2149 62.6178C83.3847 58.8365 83.429 57.6312 83.429 48.0038C83.429 38.3764 83.3847 37.1682 83.2149 33.387C83.0377 29.6131 82.4397 27.0371 81.5685 24.7832C80.6603 22.4516 79.4495 20.4739 77.4781 18.5035C75.5068 16.5316 73.5355 15.3205 71.2024 14.4158C68.9431 13.5391 66.3664 12.9417 62.5936 12.7689C58.8133 12.5968 57.6099 12.5547 47.9822 12.5547H47.9932ZM44.814 18.9429C45.7576 18.9414 46.8104 18.9429 47.9932 18.9429C57.4556 18.9429 58.5771 18.9769 62.3137 19.1468C65.7691 19.3048 67.6444 19.8823 68.8937 20.3675C70.5475 21.0101 71.7266 21.7781 72.9663 23.0188C74.2066 24.2596 74.9745 25.4412 75.6183 27.0955C76.1034 28.3436 76.6815 30.2194 76.8388 33.6757C77.0086 37.4127 77.0455 38.5352 77.0455 47.9957C77.0455 57.4562 77.0086 58.5788 76.8388 62.3157C76.6808 65.772 76.1034 67.6479 75.6183 68.896C74.976 70.5503 74.2066 71.7282 72.9663 72.9682C71.7259 74.2089 70.5482 74.977 68.8937 75.6195C67.6459 76.1069 65.7691 76.683 62.3137 76.841C58.5778 77.0109 57.4556 77.0478 47.9932 77.0478C38.5301 77.0478 37.4086 77.0109 33.6727 76.841C30.2174 76.6815 28.342 76.104 27.092 75.6187C25.4382 74.9762 24.2569 74.2082 23.0165 72.9674C21.7761 71.7267 21.0083 70.548 20.3645 68.893C19.8794 67.6449 19.3013 65.769 19.144 62.3128C18.9742 58.5758 18.9402 57.4533 18.9402 47.9869C18.9402 38.5205 18.9742 37.4038 19.144 33.6669C19.302 30.2106 19.8794 28.3347 20.3645 27.0851C21.0068 25.4309 21.7761 24.2492 23.0165 23.0085C24.2569 21.7678 25.4382 20.9997 27.092 20.3557C28.3413 19.8683 30.2174 19.2922 33.6727 19.1335C36.942 18.9858 38.209 18.9414 44.814 18.9341V18.9429ZM66.9105 24.829C64.5627 24.829 62.6578 26.7321 62.6578 29.0814C62.6578 31.4299 64.5627 33.3353 66.9105 33.3353C69.2584 33.3353 71.1633 31.4299 71.1633 29.0814C71.1633 26.7329 69.2584 24.8275 66.9105 24.8275V24.829ZM47.9932 29.7992C37.9424 29.7992 29.7936 37.9503 29.7936 48.0038C29.7936 58.0574 37.9424 66.2048 47.9932 66.2048C58.044 66.2048 66.1899 58.0574 66.1899 48.0038C66.1899 37.9503 58.0433 29.7992 47.9925 29.7992H47.9932ZM47.9932 36.1875C54.517 36.1875 59.8064 41.4775 59.8064 48.0038C59.8064 54.5294 54.517 59.8202 47.9932 59.8202C41.4687 59.8202 36.1801 54.5294 36.1801 48.0038C36.1801 41.4775 41.4687 36.1875 47.9932 36.1875Z" fill="white"/>
</g>
<defs>
<radialGradient id="paint0_radial_808_11866" cx="0" cy="0" r="1" gradientUnits="userSpaceOnUse" gradientTransform="translate(25.5001 103.394) rotate(-90) scale(95.1431 88.4906)">
<stop stop-color="#FFDD55"/>
<stop offset="0.1" stop-color="#FFDD55"/>
<stop offset="0.5" stop-color="#FF543E"/>
<stop offset="1" stop-color="#C837AB"/>
</radialGradient>
<radialGradient id="paint1_radial_808_11866" cx="0" cy="0" r="1" gradientUnits="userSpaceOnUse" gradientTransform="translate(-16.0805 6.91568) rotate(78.6806) scale(42.5294 175.308)">
<stop stop-color="#3771C8"/>
<stop offset="0.128" stop-color="#3771C8"/>
<stop offset="1" stop-color="#6600FF" stop-opacity="0"/>
</radialGradient>
</defs>
</svg>
