<svg width="48" height="48" viewBox="0 0 48 48" fill="none" xmlns="http://www.w3.org/2000/svg">
<g clip-path="url(#clip0_2455_16553)">
<path d="M36 0H12C5.37258 0 0 5.37258 0 12V36C0 42.6274 5.37258 48 12 48H36C42.6274 48 48 42.6274 48 36V12C48 5.37258 42.6274 0 36 0Z" fill="#DCDCDC"/>
<path d="M37.9987 22.1379C37.9987 15.8737 31.7188 10.7773 23.9993 10.7773C16.2799 10.7773 10 15.8737 10 22.1379C10 27.7539 14.9809 32.4567 21.7083 33.3463C22.1636 33.4447 22.7843 33.6468 22.9417 34.0365C23.0834 34.3908 23.0336 34.9445 22.9876 35.3027C22.9876 35.3027 22.8237 36.2908 22.7882 36.5007C22.7266 36.855 22.5075 37.8851 24.0007 37.2552C25.4952 36.6254 32.0625 32.5079 34.9991 29.1278C37.0277 26.9024 38 24.6454 38 22.1379H37.9987Z" fill="white"/>
<path d="M33.3369 25.7561H29.4044C29.2562 25.7561 29.1367 25.6367 29.1367 25.4884V25.4844V19.3856V19.379C29.1367 19.2307 29.2562 19.1113 29.4044 19.1113H33.3369C33.4839 19.1113 33.6046 19.232 33.6046 19.379V20.3723C33.6046 20.5206 33.4852 20.64 33.3369 20.64H30.6641V21.6713H33.3369C33.4839 21.6713 33.6046 21.7921 33.6046 21.939V22.9323C33.6046 23.0806 33.4852 23.2 33.3369 23.2H30.6641V24.2313H33.3369C33.4839 24.2313 33.6046 24.3521 33.6046 24.499V25.4923C33.6046 25.6406 33.4852 25.76 33.3369 25.76V25.7561Z" fill="#DCDCDC"/>
<path d="M18.7913 25.7554C18.9383 25.7554 19.059 25.636 19.059 25.4877V24.4944C19.059 24.3475 18.9383 24.2268 18.7913 24.2268H16.1185V19.3771C16.1185 19.2301 15.9978 19.1094 15.8508 19.1094H14.8575C14.7092 19.1094 14.5898 19.2288 14.5898 19.3771V25.4825V25.4877C14.5898 25.636 14.7092 25.7554 14.8575 25.7554H18.79H18.7913Z" fill="#DCDCDC"/>
<path d="M21.162 19.1113H20.17C20.0222 19.1113 19.9023 19.2312 19.9023 19.379V25.4884C19.9023 25.6362 20.0222 25.7561 20.17 25.7561H21.162C21.3098 25.7561 21.4297 25.6362 21.4297 25.4884V19.379C21.4297 19.2312 21.3098 19.1113 21.162 19.1113Z" fill="#DCDCDC"/>
<path d="M27.9149 19.1113H26.9216C26.7733 19.1113 26.6539 19.2307 26.6539 19.379V23.0071L23.859 19.232C23.8525 19.2229 23.8446 19.2137 23.838 19.2045C23.838 19.2045 23.838 19.2045 23.8367 19.2032C23.8315 19.1979 23.8262 19.1914 23.821 19.1861C23.8197 19.1848 23.8171 19.1835 23.8157 19.1822C23.8105 19.1782 23.8066 19.1743 23.8013 19.1704C23.7987 19.1691 23.7961 19.1664 23.7934 19.1651C23.7895 19.1612 23.7843 19.1586 23.779 19.1559C23.7764 19.1546 23.7738 19.152 23.7711 19.1507C23.7659 19.1481 23.7619 19.1454 23.7567 19.1428C23.7541 19.1415 23.7514 19.1402 23.7488 19.1389C23.7436 19.1363 23.7383 19.1336 23.7331 19.1323C23.7305 19.1323 23.7278 19.1297 23.7239 19.1297C23.7186 19.1284 23.7134 19.1258 23.7081 19.1245C23.7055 19.1245 23.7016 19.1231 23.699 19.1218C23.6937 19.1218 23.6885 19.1192 23.6832 19.1179C23.6793 19.1179 23.6753 19.1179 23.6714 19.1166C23.6662 19.1166 23.6622 19.1153 23.657 19.1153C23.6517 19.1153 23.6478 19.1153 23.6425 19.1153C23.6399 19.1153 23.636 19.1153 23.6334 19.1153H22.6466C22.4997 19.1153 22.3789 19.2347 22.3789 19.3829V25.4923C22.3789 25.6393 22.4983 25.76 22.6466 25.76H23.6399C23.7882 25.76 23.9076 25.6406 23.9076 25.4923V21.8642L26.7064 25.6445C26.7261 25.6721 26.7497 25.6944 26.776 25.7115C26.776 25.7115 26.7786 25.7128 26.7786 25.7141C26.7838 25.718 26.7891 25.7206 26.7956 25.7246C26.7983 25.7259 26.8009 25.7272 26.8035 25.7285C26.8074 25.7311 26.8127 25.7324 26.8166 25.7351C26.8206 25.7377 26.8258 25.739 26.8298 25.7403C26.8324 25.7403 26.835 25.7429 26.8376 25.7429C26.8442 25.7456 26.8494 25.7469 26.856 25.7482C26.856 25.7482 26.8586 25.7482 26.8599 25.7482C26.8822 25.7534 26.9059 25.7574 26.9295 25.7574H27.9162C28.0632 25.7574 28.1839 25.638 28.1839 25.4897V19.3803C28.1839 19.2334 28.0645 19.1126 27.9162 19.1126L27.9149 19.1113Z" fill="#DCDCDC"/>
</g>
<defs>
<clipPath id="clip0_2455_16553">
<rect width="48" height="48" fill="white"/>
</clipPath>
</defs>
</svg>
