<svg width="30" height="30" viewBox="0 0 30 30" fill="none" xmlns="http://www.w3.org/2000/svg">
<path d="M18.8884 15.7405C19.0372 15.9033 19.0372 16.167 18.8884 16.3296L17.3646 17.9963C17.2903 18.0777 17.1928 18.1183 17.0953 18.1183C16.9977 18.1183 16.9002 18.0776 16.8259 17.9963C16.6771 17.8335 16.6771 17.5698 16.8259 17.4072L18.0802 16.0351L16.8259 14.663C16.6771 14.5003 16.6771 14.2365 16.8259 14.0739C16.9745 13.9112 17.216 13.9112 17.3646 14.0739L18.8884 15.7405ZM13.1742 14.663L11.9198 16.0351L13.1741 17.4072C13.3229 17.5699 13.3229 17.8337 13.1741 17.9963C13.0998 18.0777 13.0023 18.1183 12.9047 18.1183C12.8072 18.1183 12.7097 18.0776 12.6354 17.9963L11.1116 16.3296C10.9628 16.1669 10.9628 15.9031 11.1116 15.7405L12.6354 14.0739C12.784 13.9112 13.0255 13.9112 13.1741 14.0739C13.3229 14.2367 13.3229 14.5004 13.1742 14.663ZM16.1156 14.1066L14.5918 18.2731C14.5322 18.436 14.3891 18.5349 14.2382 18.5349C14.1909 18.5349 14.1432 18.5254 14.0968 18.505C13.9013 18.4196 13.8065 18.1772 13.8846 17.9634L15.4084 13.7969C15.4867 13.5832 15.7086 13.4794 15.9036 13.5649C16.0988 13.6505 16.1937 13.8928 16.1157 14.1066L16.1156 14.1066Z" fill="#929292"/>
<path d="M20.6096 12.6832C20.536 12.6832 20.4614 12.6854 20.3846 12.6896C19.4364 10.2214 17.0192 8.53494 14.3484 8.53494C10.8539 8.53494 7.99953 11.321 7.88753 14.7887C6.25771 15.0169 5 16.4197 5 18.1104C5 19.96 6.50502 21.4651 8.35469 21.4651H8.36219H20.6257C20.6364 21.4651 20.6469 21.4651 20.6565 21.464C23.0544 21.4385 25 19.4747 25 17.0736C25.0011 14.6532 23.0309 12.683 20.6096 12.683L20.6096 12.6832ZM20.6244 20.3281C20.6158 20.3281 20.6083 20.3281 20.6 20.3292H8.38952C8.37238 20.3281 8.35649 20.3281 8.33827 20.3292C7.12326 20.3195 6.1377 19.3286 6.1377 18.1115C6.1377 16.8902 7.13181 15.8959 8.34682 15.8959H8.34896C8.37986 15.9002 8.41075 15.9034 8.44289 15.9045C8.6029 15.913 8.76075 15.8511 8.87379 15.737C8.98683 15.6228 9.04665 15.465 9.03808 15.3039L9.03166 15.1962C9.02737 15.1312 9.02201 15.0661 9.02201 15.0011C9.02201 12.0633 11.4113 9.67391 14.3492 9.67391C16.682 9.67391 18.7801 11.2355 19.45 13.4702C19.5322 13.7432 19.8041 13.915 20.0857 13.8681C20.2798 13.8361 20.4506 13.8211 20.6095 13.8211C22.4036 13.8211 23.8629 15.2804 23.8629 17.0745C23.864 18.8612 22.4102 20.3205 20.6245 20.328L20.6244 20.3281Z" fill="#929292" stroke="#929292" stroke-width="0.5"/>
</svg>
