<svg width="24" height="24" viewBox="0 0 24 24" fill="none" xmlns="http://www.w3.org/2000/svg">
<path d="M15.8884 12.7405C16.0372 12.9033 16.0372 13.167 15.8884 13.3296L14.3646 14.9962C14.2903 15.0776 14.1928 15.1183 14.0953 15.1183C13.9977 15.1183 13.9002 15.0776 13.8259 14.9962C13.6771 14.8335 13.6771 14.5697 13.8259 14.4071L15.0802 13.0351L13.8259 11.663C13.6771 11.5002 13.6771 11.2365 13.8259 11.0739C13.9745 10.9111 14.216 10.9111 14.3646 11.0739L15.8884 12.7405ZM10.1742 11.663L8.91983 13.0351L10.1741 14.4071C10.3229 14.5699 10.3229 14.8336 10.1741 14.9962C10.0998 15.0776 10.0023 15.1183 9.90474 15.1183C9.80722 15.1183 9.7097 15.0776 9.63543 14.9962L8.11161 13.3296C7.9628 13.1669 7.9628 12.9031 8.11161 12.7405L9.63543 11.0739C9.78397 10.9111 10.0255 10.9111 10.1741 11.0739C10.3229 11.2366 10.3229 11.5004 10.1742 11.663ZM13.1156 11.1066L11.5918 15.2731C11.5322 15.436 11.3891 15.5349 11.2382 15.5349C11.1909 15.5349 11.1432 15.5253 11.0968 15.505C10.9013 15.4195 10.8065 15.1771 10.8846 14.9634L12.4084 10.7969C12.4867 10.5831 12.7086 10.4794 12.9036 10.5648C13.0988 10.6504 13.1937 10.8928 13.1157 11.1066L13.1156 11.1066Z" fill="#636364"/>
<path d="M17.6096 9.68318C17.536 9.68318 17.4614 9.68533 17.3846 9.68961C16.4364 7.22138 14.0192 5.53491 11.3484 5.53491C7.85392 5.53491 4.99953 8.321 4.88753 11.7887C3.25771 12.0169 2 13.4196 2 15.1103C2 16.96 3.50502 18.465 5.35469 18.465H5.36219H17.6257C17.6364 18.465 17.6469 18.465 17.6565 18.464C20.0544 18.4384 22 16.4746 22 14.0736C22.0011 11.6532 20.0309 9.68296 17.6096 9.68296L17.6096 9.68318ZM17.6244 17.3281C17.6158 17.3281 17.6083 17.3281 17.6 17.3291H5.38952C5.37238 17.3281 5.35649 17.3281 5.33827 17.3291C4.12326 17.3195 3.1377 16.3286 3.1377 15.1114C3.1377 13.8902 4.13181 12.8959 5.34682 12.8959H5.34896C5.37986 12.9001 5.41075 12.9034 5.44289 12.9044C5.6029 12.913 5.76075 12.851 5.87379 12.7369C5.98683 12.6228 6.04665 12.465 6.03808 12.3039L6.03166 12.1962C6.02737 12.1312 6.02201 12.066 6.02201 12.001C6.02201 9.0633 8.41134 6.67387 11.3492 6.67387C13.682 6.67387 15.7801 8.23549 16.45 10.4702C16.5322 10.7432 16.8041 10.915 17.0857 10.868C17.2798 10.8361 17.4506 10.8211 17.6095 10.8211C19.4036 10.8211 20.8629 12.2804 20.8629 14.0745C20.864 15.8611 19.4102 17.3204 17.6245 17.3279L17.6244 17.3281Z" fill="#636364" stroke="#636364" stroke-width="0.5"/>
</svg>
