<svg width="24" height="24" viewBox="0 0 24 24" fill="none" xmlns="http://www.w3.org/2000/svg">
<path d="M15.25 16.2007V16.2007C16.3272 16.2 17.2 15.3265 17.2 14.2494V7.80153C17.2 6.69715 16.3049 5.80179 15.2005 5.80154L12.0192 5.80079L8.80246 5.80003C7.69804 5.79977 6.80246 6.69475 6.80199 7.79917L6.80005 12.2994M15.25 16.2007H8.80141C7.6974 16.2007 6.8022 15.3061 6.80141 14.2021L6.80005 12.2994M15.25 16.2007L10.8102 11.2666C10.0437 10.4147 8.71962 10.3798 7.90931 11.1901L6.80005 12.2994M15.25 9.69938C15.25 10.4173 14.668 10.9994 13.95 10.9994C13.2321 10.9994 12.65 10.4173 12.65 9.69938C12.65 8.98141 13.2321 8.39938 13.95 8.39938C14.668 8.39938 15.25 8.98141 15.25 9.69938Z" stroke="#929292" stroke-width="1.3" stroke-linecap="round" stroke-linejoin="round"/>
<path d="M7.59998 18.2004H16.4" stroke="#929292" stroke-width="1.3" stroke-linecap="round" stroke-linejoin="round"/>
</svg>
