<svg xmlns="http://www.w3.org/2000/svg" width="20" height="18" viewBox="0 0 20 18" fill="none">
  <path d="M18.5 10.5048H18V9.50481C18 8.70916 17.6839 7.9461 17.1213 7.38349C16.5587 6.82088 15.7956 6.50481 15 6.50481H11V4.22741C11.3813 4.00728 11.6793 3.66748 11.8478 3.26073C12.0162 2.85397 12.0458 2.40299 11.9319 1.97772C11.8179 1.55246 11.5668 1.17667 11.2175 0.908655C10.8682 0.640636 10.4403 0.495361 10 0.495361C9.55973 0.495361 9.13177 0.640636 8.78248 0.908655C8.43319 1.17667 8.1821 1.55246 8.06815 1.97772C7.9542 2.40299 7.98376 2.85397 8.15224 3.26073C8.32072 3.66748 8.61872 4.00728 9 4.22741V6.50481H5C4.20435 6.50481 3.44129 6.82088 2.87868 7.38349C2.31607 7.9461 2 8.70916 2 9.50481V10.5048H1.5C1.10218 10.5048 0.720644 10.6628 0.43934 10.9442C0.158035 11.2255 0 11.607 0 12.0048C0 12.4026 0.158035 12.7842 0.43934 13.0655C0.720644 13.3468 1.10218 13.5048 1.5 13.5048H2V14.5048C2 15.3005 2.31607 16.0635 2.87868 16.6261C3.44129 17.1887 4.20435 17.5048 5 17.5048H15C15.7956 17.5048 16.5587 17.1887 17.1213 16.6261C17.6839 16.0635 18 15.3005 18 14.5048V13.5048H18.5C18.8978 13.5048 19.2794 13.3468 19.5607 13.0655C19.842 12.7842 20 12.4026 20 12.0048C20 11.607 19.842 11.2255 19.5607 10.9442C19.2794 10.6628 18.8978 10.5048 18.5 10.5048ZM8 12.0048C8 12.3015 7.91203 12.5915 7.7472 12.8382C7.58238 13.0848 7.34811 13.2771 7.07403 13.3906C6.79994 13.5042 6.49834 13.5339 6.20736 13.476C5.91639 13.4181 5.64912 13.2753 5.43934 13.0655C5.22956 12.8557 5.0867 12.5884 5.02882 12.2974C4.97094 12.0065 5.00065 11.7049 5.11418 11.4308C5.22771 11.1567 5.41997 10.9224 5.66665 10.7576C5.91332 10.5928 6.20333 10.5048 6.5 10.5048C6.89783 10.5048 7.27936 10.6628 7.56066 10.9442C7.84197 11.2255 8 11.607 8 12.0048ZM15 12.0048C15 12.3015 14.912 12.5915 14.7472 12.8382C14.5824 13.0848 14.3481 13.2771 14.074 13.3906C13.7999 13.5042 13.4983 13.5339 13.2074 13.476C12.9164 13.4181 12.6491 13.2753 12.4393 13.0655C12.2296 12.8557 12.0867 12.5884 12.0288 12.2974C11.9709 12.0065 12.0006 11.7049 12.1142 11.4308C12.2277 11.1567 12.42 10.9224 12.6666 10.7576C12.9133 10.5928 13.2033 10.5048 13.5 10.5048C13.8978 10.5048 14.2794 10.6628 14.5607 10.9442C14.842 11.2255 15 11.607 15 12.0048Z" fill="#DCDCDC"/>
</svg>