<svg width="24" height="24" viewBox="0 0 24 24" fill="none" xmlns="http://www.w3.org/2000/svg">
<path d="M10.0001 11.9999H16.4001M10.0001 8.15991H16.4001M10.0001 15.8399H16.4001" stroke="#636364" stroke-width="1.4" stroke-linecap="round" stroke-linejoin="round"/>
<path d="M6.80005 11.9999H8.08005M6.80005 8.15991H8.08005M6.80005 15.8399H8.08005" stroke="#636364" stroke-width="1.4" stroke-linecap="round" stroke-linejoin="round"/>
<path d="M2.70683 13.9746C2.62214 13.9746 2.53744 13.9434 2.47058 13.8765L0.897004 12.303C0.76773 12.1737 0.76773 11.9597 0.897004 11.8304L2.47058 10.2569C2.59985 10.1276 2.81382 10.1276 2.94309 10.2569C3.07237 10.3861 3.07237 10.6001 2.94309 10.7294L1.60578 12.0667L2.94309 13.404C3.07237 13.5333 3.07237 13.7473 2.94309 13.8765C2.88069 13.9434 2.79599 13.9746 2.70683 13.9746Z" fill="#636364"/>
<path d="M21.2932 13.9746C21.3779 13.9746 21.4626 13.9434 21.5294 13.8765L23.103 12.303C23.2323 12.1737 23.2323 11.9597 23.103 11.8304L21.5294 10.2569C21.4002 10.1276 21.1862 10.1276 21.0569 10.2569C20.9276 10.3861 20.9276 10.6001 21.0569 10.7294L22.3942 12.0667L21.0569 13.404C20.9276 13.5333 20.9276 13.7473 21.0569 13.8765C21.1193 13.9434 21.204 13.9746 21.2932 13.9746Z" fill="#636364"/>
</svg>
