<svg xmlns="http://www.w3.org/2000/svg" width="19" height="17" viewBox="0 0 19 17" fill="none">
  <path d="M16.1 6.76081V6.69961C16.1 3.06061 13.139 0.0996094 9.5 0.0996094C5.861 0.0996094 2.9 3.06061 2.9 6.69961V6.76081C1.5326 7.03861 0.5 8.25121 0.5 9.69961V10.8996C0.5 12.5538 1.8458 13.8996 3.5 13.8996H5.3C5.6312 13.8996 5.9 13.6314 5.9 13.2996V7.29961C5.9 6.96781 5.6312 6.69961 5.3 6.69961H4.1C4.1 3.72181 6.5228 1.29961 9.5 1.29961C12.4778 1.29961 14.9 3.72181 14.9 6.69961H13.7C13.3682 6.69961 13.1 6.96781 13.1 7.29961V13.2996C13.1 13.6314 13.3682 13.8996 13.7 13.8996H14.9V14.4996C14.9 14.8308 14.6312 15.0996 14.3 15.0996H10.5332C10.325 14.7426 9.9422 14.4996 9.5 14.4996C8.8382 14.4996 8.3 15.0378 8.3 15.6996C8.3 16.3614 8.8382 16.8996 9.5 16.8996C9.9422 16.8996 10.325 16.6566 10.5332 16.2996H14.3C15.2924 16.2996 16.1 15.492 16.1 14.4996V13.8384C17.4674 13.56 18.5 12.348 18.5 10.8996V9.69961C18.5 8.25121 17.4674 7.03861 16.1 6.76081ZM4.7 7.89961V12.6996H3.5C2.5076 12.6996 1.7 11.892 1.7 10.8996V9.69961C1.7 8.70721 2.5076 7.89961 3.5 7.89961H4.7ZM17.3 10.8996C17.3 11.892 16.4924 12.6996 15.5 12.6996H14.3V7.89961H15.5C16.4924 7.89961 17.3 8.70721 17.3 9.69961V10.8996Z" fill="#929292"/>
</svg>