<svg width="14" height="16" viewBox="0 0 14 16" fill="none" xmlns="http://www.w3.org/2000/svg">
<path d="M2.33325 4.66669H11.6666V13.3334C11.6666 13.687 11.526 14.0261 11.276 14.2761C11.0259 14.5262 10.6869 14.6667 10.3333 14.6667H3.66659C3.31296 14.6667 2.97376 14.5262 2.72371 14.2761C2.47367 14.0261 2.33325 13.687 2.33325 13.3334V4.66669Z" stroke="#B5B4B4" stroke-width="1.2" stroke-miterlimit="10"/>
<path d="M0.333313 4.66667H2.76658C3.03172 4.66613 3.29071 4.58659 3.5104 4.43815C3.73008 4.28972 3.90055 4.07912 3.99998 3.83334L4.66665 2.17334C4.76503 1.92631 4.93499 1.7143 5.15476 1.56462C5.37454 1.41494 5.63398 1.33441 5.89988 1.33334H8.09991C8.36582 1.33441 8.62526 1.41494 8.84503 1.56462C9.0648 1.7143 9.23493 1.92631 9.33331 2.17334L9.99998 3.83334C10.0998 4.08018 10.2712 4.2915 10.4922 4.44003C10.7132 4.58855 10.9736 4.66746 11.2399 4.66667H13.6666" stroke="#B5B4B4" stroke-width="1.2" stroke-miterlimit="10"/>
</svg>
