<svg width="40" height="40" viewBox="0 0 40 40" fill="none" xmlns="http://www.w3.org/2000/svg">
<path d="M0 8C0 3.58172 3.58172 0 8 0H32C36.4183 0 40 3.58172 40 8V32C40 36.4183 36.4183 40 32 40H8C3.58172 40 0 36.4183 0 32V8Z" fill="black"/>
<path fill-rule="evenodd" clip-rule="evenodd" d="M14.6006 10.8C12.3914 10.8 10.6006 12.5909 10.6006 14.8001V22.5573C10.6006 22.5996 10.6012 22.6419 10.6026 22.6839C10.6006 22.9684 10.6006 23.2745 10.6006 23.603V24.346C10.6006 27.2229 10.6006 28.6614 11.4648 29.0194C12.2044 29.3257 13.056 28.625 14.5612 27.1416C14.8553 26.8517 15.0024 26.7068 15.1847 26.632C15.367 26.5573 15.5703 26.5573 15.9769 26.5573H25.3592C27.5683 26.5573 29.3592 24.7664 29.3592 22.5573V14.8C29.3592 12.5909 27.5684 10.8 25.3592 10.8H14.6006Z" fill="white"/>
<path d="M19.8865 23.8373C21.8418 23.8373 23.4721 22.4459 23.8413 20.5992C23.9279 20.1659 23.5614 19.8042 23.1196 19.8042H16.6534C16.2116 19.8042 15.8451 20.1659 15.9317 20.5992C16.3009 22.4459 17.9312 23.8373 19.8865 23.8373Z" fill="#4478FF"/>
</svg>
