<svg width="24" height="24" viewBox="0 0 24 24" fill="none" xmlns="http://www.w3.org/2000/svg">
<path d="M11.9989 18.4003C13.6229 18.4004 15.1864 17.7833 16.3724 16.6738C17.5584 15.5642 18.2781 14.0453 18.3858 12.4249C18.4937 10.8045 17.9814 9.20351 16.9528 7.94667L18.2114 6.68801L17.3069 5.78353L16.0524 7.04634C14.9902 6.17729 13.6768 5.67278 12.3059 5.60718C10.935 5.54155 9.57934 5.91835 8.43912 6.68206C7.29875 7.44563 6.434 8.55564 5.97254 9.84821C5.51108 11.1407 5.47744 12.5474 5.8764 13.8605C6.27523 15.1737 7.08581 16.3238 8.18824 17.1412C9.29078 17.9587 10.6267 18.4001 11.9994 18.4002L11.9989 18.4003ZM11.9989 6.87997C13.3569 6.87997 14.6593 7.41942 15.6194 8.37956C16.5795 9.3397 17.119 10.6421 17.119 12C17.119 13.3579 16.5795 14.6604 15.6194 15.6205C14.6593 16.5807 13.3568 17.1201 11.9989 17.1201C10.641 17.1201 9.33857 16.5807 8.37843 15.6205C7.41829 14.6604 6.87885 13.3579 6.87885 12C6.87885 10.6421 7.41829 9.3397 8.37843 8.37956C9.33857 7.41942 10.641 6.87997 11.9989 6.87997V6.87997Z" fill="#636364"/>
<path d="M11.9989 12.8535C12.1687 12.8535 12.3315 12.786 12.4515 12.6661C12.5716 12.546 12.639 12.3832 12.639 12.2136V8.58667H11.3589V12.2136C11.3589 12.3832 11.4263 12.546 11.5464 12.6661C11.6663 12.786 11.8291 12.8535 11.9989 12.8535H11.9989Z" fill="#636364"/>
</svg>
