<svg width="30" height="30" viewBox="0 0 30 30" fill="none" xmlns="http://www.w3.org/2000/svg">
<path d="M10.8714 13C10.8714 13.3866 11.1848 13.7 11.5714 13.7C11.958 13.7 12.2714 13.3866 12.2714 13H10.8714ZM17.7286 13C17.7286 13.3866 18.042 13.7 18.4286 13.7C18.8152 13.7 19.1286 13.3866 19.1286 13H17.7286ZM20.3 12.4286V20.4286H21.7V12.4286H20.3ZM19 21.7286H11V23.1286H19V21.7286ZM9.7 20.4286V12.4286H8.3V20.4286H9.7ZM14.1429 7.7H15.8571V6.3H14.1429V7.7ZM15.8571 7.7C16.8907 7.7 17.7286 8.53787 17.7286 9.57143H19.1286C19.1286 7.76467 17.6639 6.3 15.8571 6.3V7.7ZM12.2714 9.57143C12.2714 8.53787 13.1093 7.7 14.1429 7.7V6.3C12.3361 6.3 10.8714 7.76467 10.8714 9.57143H12.2714ZM11 11.1286H11.5714V9.72857H11V11.1286ZM12.2714 10.4286V9.57143H10.8714V10.4286H12.2714ZM17.7286 9.57143V10.4286H19.1286V9.57143H17.7286ZM18.4286 11.1286H19V9.72857H18.4286V11.1286ZM18.4286 9.72857H11.5714V11.1286H18.4286V9.72857ZM17.7286 10.4286V13H19.1286V10.4286H17.7286ZM12.2714 13V10.4286H10.8714V13H12.2714ZM11 21.7286C10.282 21.7286 9.7 21.1465 9.7 20.4286H8.3C8.3 21.9197 9.50883 23.1286 11 23.1286V21.7286ZM20.3 20.4286C20.3 21.1465 19.718 21.7286 19 21.7286V23.1286C20.4912 23.1286 21.7 21.9197 21.7 20.4286H20.3ZM21.7 12.4286C21.7 10.9374 20.4912 9.72857 19 9.72857V11.1286C19.718 11.1286 20.3 11.7106 20.3 12.4286H21.7ZM9.7 12.4286C9.7 11.7106 10.282 11.1286 11 11.1286V9.72857C9.50883 9.72857 8.3 10.9374 8.3 12.4286H9.7Z" fill="#636364"/>
<path d="M3.38348 17.7684C3.27761 17.7684 3.17174 17.7294 3.08816 17.6458L1.12119 15.6788C0.959602 15.5172 0.959602 15.2498 1.12119 15.0882L3.08816 13.1212C3.24975 12.9596 3.51721 12.9596 3.67881 13.1212C3.8404 13.2828 3.8404 13.5502 3.67881 13.7118L2.00716 15.3835L3.67881 17.0551C3.8404 17.2167 3.8404 17.4842 3.67881 17.6458C3.6008 17.7294 3.49493 17.7684 3.38348 17.7684Z" fill="#636364"/>
<path d="M26.6165 17.7684C26.7224 17.7684 26.8283 17.7294 26.9118 17.6458L28.8788 15.6788C29.0404 15.5172 29.0404 15.2498 28.8788 15.0882L26.9118 13.1212C26.7502 12.9596 26.4828 12.9596 26.3212 13.1212C26.1596 13.2828 26.1596 13.5502 26.3212 13.7118L27.9928 15.3835L26.3212 17.0551C26.1596 17.2167 26.1596 17.4842 26.3212 17.6458C26.3992 17.7294 26.5051 17.7684 26.6165 17.7684Z" fill="#636364"/>
</svg>
