<svg width="30" height="30" viewBox="0 0 30 30" fill="none" xmlns="http://www.w3.org/2000/svg">
<path d="M10.8714 13C10.8714 13.3866 11.1848 13.7 11.5714 13.7C11.958 13.7 12.2714 13.3866 12.2714 13H10.8714ZM17.7286 13C17.7286 13.3866 18.042 13.7 18.4286 13.7C18.8152 13.7 19.1286 13.3866 19.1286 13H17.7286ZM20.3 12.4286V20.4286H21.7V12.4286H20.3ZM19 21.7286H11V23.1286H19V21.7286ZM9.7 20.4286V12.4286H8.3V20.4286H9.7ZM14.1429 7.7H15.8571V6.3H14.1429V7.7ZM15.8571 7.7C16.8907 7.7 17.7286 8.53787 17.7286 9.57143H19.1286C19.1286 7.76467 17.6639 6.3 15.8571 6.3V7.7ZM12.2714 9.57143C12.2714 8.53787 13.1093 7.7 14.1429 7.7V6.3C12.3361 6.3 10.8714 7.76467 10.8714 9.57143H12.2714ZM11 11.1286H11.5714V9.72857H11V11.1286ZM12.2714 10.4286V9.57143H10.8714V10.4286H12.2714ZM17.7286 9.57143V10.4286H19.1286V9.57143H17.7286ZM18.4286 11.1286H19V9.72857H18.4286V11.1286ZM18.4286 9.72857H11.5714V11.1286H18.4286V9.72857ZM17.7286 10.4286V13H19.1286V10.4286H17.7286ZM12.2714 13V10.4286H10.8714V13H12.2714ZM11 21.7286C10.282 21.7286 9.7 21.1465 9.7 20.4286H8.3C8.3 21.9197 9.50883 23.1286 11 23.1286V21.7286ZM20.3 20.4286C20.3 21.1465 19.718 21.7286 19 21.7286V23.1286C20.4912 23.1286 21.7 21.9197 21.7 20.4286H20.3ZM21.7 12.4286C21.7 10.9374 20.4912 9.72857 19 9.72857V11.1286C19.718 11.1286 20.3 11.7106 20.3 12.4286H21.7ZM9.7 12.4286C9.7 11.7106 10.282 11.1286 11 11.1286V9.72857C9.50883 9.72857 8.3 10.9374 8.3 12.4286H9.7Z" fill="#929292"/>
</svg>
