<svg width="30" height="30" viewBox="0 0 30 30" fill="none" xmlns="http://www.w3.org/2000/svg">
<path d="M13.0001 14.8H21.0001M13.0001 10H21.0001M13.0001 19.6H21.0001" stroke="#636364" stroke-width="1.4" stroke-linecap="round" stroke-linejoin="round"/>
<path d="M9 14.8H10.6M9 10H10.6M9 19.6H10.6" stroke="#636364" stroke-width="1.4" stroke-linecap="round" stroke-linejoin="round"/>
<path d="M3.38348 17.7684C3.27761 17.7684 3.17174 17.7294 3.08816 17.6458L1.12119 15.6788C0.959602 15.5172 0.959602 15.2498 1.12119 15.0882L3.08816 13.1212C3.24975 12.9596 3.51721 12.9596 3.67881 13.1212C3.8404 13.2828 3.8404 13.5502 3.67881 13.7118L2.00716 15.3835L3.67881 17.0551C3.8404 17.2167 3.8404 17.4842 3.67881 17.6458C3.6008 17.7294 3.49493 17.7684 3.38348 17.7684Z" fill="#636364"/>
<path d="M26.6165 17.7684C26.7224 17.7684 26.8283 17.7294 26.9118 17.6458L28.8788 15.6788C29.0404 15.5172 29.0404 15.2498 28.8788 15.0882L26.9118 13.1212C26.7502 12.9596 26.4828 12.9596 26.3212 13.1212C26.1596 13.2828 26.1596 13.5502 26.3212 13.7118L27.9928 15.3835L26.3212 17.0551C26.1596 17.2167 26.1596 17.4842 26.3212 17.6458C26.3992 17.7294 26.5051 17.7684 26.6165 17.7684Z" fill="#636364"/>
</svg>
