<svg width="30" height="30" viewBox="0 0 30 30" fill="none" xmlns="http://www.w3.org/2000/svg">
<path d="M19.375 22.0015V22.7015L19.3755 22.7015L19.375 22.0015ZM15.0258 8.00165L15.026 7.30165L15.0258 8.00165ZM8 16.7498L7.3 16.7495L7.3 16.7503L8 16.7498ZM20.0005 8.00282L20.0006 7.30282L20.0005 8.00282ZM20.0013 22.0011L20.0009 21.3011L20.0013 22.0011ZM18.675 13.2498C18.675 13.8297 18.2049 14.2998 17.625 14.2998V15.6998C18.9781 15.6998 20.075 14.6029 20.075 13.2498H18.675ZM17.625 12.1998C18.2049 12.1998 18.675 12.6699 18.675 13.2498H20.075C20.075 11.8967 18.9781 10.7998 17.625 10.7998V12.1998ZM16.575 13.2498C16.575 12.6699 17.0451 12.1998 17.625 12.1998V10.7998C16.2719 10.7998 15.175 11.8967 15.175 13.2498H16.575ZM17.625 14.2998C17.0451 14.2998 16.575 13.8297 16.575 13.2498H15.175C15.175 14.6029 16.2719 15.6998 17.625 15.6998V14.2998ZM19.3755 22.7015L20.0018 22.7011L20.0009 21.3011L19.3745 21.3015L19.3755 22.7015ZM22.7 20.0011V10.0028H21.3V20.0011H22.7ZM10.0023 22.7015H19.375V21.3015H10.0023V22.7015ZM12.3898 15.2852L18.8546 22.4697L19.8953 21.5333L13.4306 14.3487L12.3898 15.2852ZM20.0006 7.30282L15.026 7.30165L15.0257 8.70165L20.0003 8.70282L20.0006 7.30282ZM15.026 7.30165L10.0035 7.30047L10.0032 8.70047L15.0257 8.70165L15.026 7.30165ZM8.49497 17.2447L10.5042 15.2355L9.51429 14.2455L7.50503 16.2548L8.49497 17.2447ZM7.3 16.7503L7.30233 20.0034L8.70233 20.0024L8.7 16.7493L7.3 16.7503ZM7.3029 9.99931L7.3 16.7495L8.7 16.7501L8.7029 9.99991L7.3029 9.99931ZM13.4306 14.3487C12.3958 13.1987 10.6082 13.1516 9.51429 14.2455L10.5042 15.2355C11.0309 14.7088 11.8916 14.7315 12.3898 15.2852L13.4306 14.3487ZM10.0023 21.3015C9.28472 21.3015 8.70285 20.72 8.70233 20.0024L7.30233 20.0034C7.3034 21.4939 8.51192 22.7015 10.0023 22.7015V21.3015ZM10.0035 7.30047C8.51258 7.30012 7.30355 8.50835 7.3029 9.99931L8.7029 9.99991C8.70321 9.28204 9.28534 8.7003 10.0032 8.70047L10.0035 7.30047ZM22.7 10.0028C22.7 8.5119 21.4916 7.30317 20.0006 7.30282L20.0003 8.70282C20.7182 8.70299 21.3 9.28497 21.3 10.0028H22.7ZM20.0018 22.7011C21.4923 22.7001 22.7 21.4915 22.7 20.0011H21.3C21.3 20.7187 20.7185 21.3006 20.0009 21.3011L20.0018 22.7011Z" fill="#929292"/>
<path d="M3.38348 17.7684C3.27761 17.7684 3.17174 17.7294 3.08816 17.6458L1.12119 15.6788C0.959602 15.5172 0.959602 15.2498 1.12119 15.0882L3.08816 13.1212C3.24975 12.9596 3.51721 12.9596 3.67881 13.1212C3.8404 13.2828 3.8404 13.5502 3.67881 13.7118L2.00716 15.3835L3.67881 17.0551C3.8404 17.2167 3.8404 17.4842 3.67881 17.6458C3.6008 17.7294 3.49493 17.7684 3.38348 17.7684Z" fill="#929292"/>
<path d="M26.6165 17.7684C26.7224 17.7684 26.8283 17.7294 26.9118 17.6458L28.8788 15.6788C29.0404 15.5172 29.0404 15.2498 28.8788 15.0882L26.9118 13.1212C26.7502 12.9596 26.4828 12.9596 26.3212 13.1212C26.1596 13.2828 26.1596 13.5502 26.3212 13.7118L27.9928 15.3835L26.3212 17.0551C26.1596 17.2167 26.1596 17.4842 26.3212 17.6458C26.3992 17.7294 26.5051 17.7684 26.6165 17.7684Z" fill="#929292"/>
</svg>
