<svg width="30" height="30" viewBox="0 0 30 30" fill="none" xmlns="http://www.w3.org/2000/svg">
<path d="M14.9987 23.0005C17.0287 23.0007 18.983 22.2293 20.4655 20.8424C21.9481 19.4555 22.8476 17.5568 22.9823 15.5313C23.1172 13.5058 22.4767 11.5046 21.191 9.93352L22.7643 8.36019L21.6337 7.22959L20.0656 8.80811C18.7378 7.72179 17.096 7.09116 15.3824 7.00916C13.6688 6.92712 11.9742 7.39812 10.5489 8.35276C9.12346 9.30722 8.04253 10.6947 7.4657 12.3104C6.88888 13.926 6.84683 15.6844 7.34554 17.3258C7.84407 18.9672 8.85729 20.405 10.2353 21.4267C11.6135 22.4485 13.2834 23.0003 14.9993 23.0005L14.9987 23.0005ZM14.9987 8.60015C16.6961 8.60015 18.3241 9.27446 19.5243 10.4746C20.7244 11.6748 21.3988 13.3029 21.3988 15.0002C21.3988 16.6976 20.7244 18.3257 19.5243 19.5258C18.3241 20.726 16.6961 21.4003 14.9987 21.4003C13.3013 21.4003 11.6732 20.726 10.4731 19.5258C9.27289 18.3257 8.59859 16.6976 8.59859 15.0002C8.59859 13.3029 9.27289 11.6748 10.4731 10.4746C11.6732 9.27446 13.3013 8.60015 14.9987 8.60015Z" fill="#636364"/>
<path d="M14.9987 16.067C15.2109 16.067 15.4144 15.9828 15.5644 15.8328C15.7145 15.6827 15.7987 15.4792 15.7987 15.2672V10.7336H14.1986V15.2672C14.1986 15.4792 14.2829 15.6827 14.433 15.8328C14.5829 15.9828 14.7864 16.067 14.9987 16.067H14.9987Z" fill="#636364"/>
</svg>
