<svg width="24" height="24" viewBox="0 0 24 24" fill="none" xmlns="http://www.w3.org/2000/svg">
<path d="M2.86675 13.9075C2.78205 13.9075 2.69735 13.8763 2.63049 13.8094L1.05692 12.2358C0.927643 12.1065 0.927643 11.8926 1.05692 11.7633L2.63049 10.1897C2.75976 10.0605 2.97373 10.0605 3.10301 10.1897C3.23228 10.319 3.23228 10.533 3.10301 10.6622L1.76569 11.9996L3.10301 13.3369C3.23228 13.4661 3.23228 13.6801 3.10301 13.8094C3.0406 13.8763 2.9559 13.9075 2.86675 13.9075Z" fill="#929292"/>
<path d="M9.25709 10.6286V8.57147M14.7428 10.6286V8.57147M9.25709 8.57147H9.19995C8.09538 8.57147 7.19995 9.4669 7.19995 10.5715V16.1715C7.19995 17.276 8.09538 18.1715 9.19995 18.1715H14.8C15.9045 18.1715 16.8 17.276 16.8 16.1715V10.5715C16.8 9.4669 15.9045 8.57147 14.8 8.57147H14.7428M9.25709 8.57147V7.88576C9.25709 6.74963 10.1781 5.82861 11.3142 5.82861H12.6857C13.8218 5.82861 14.7428 6.74963 14.7428 7.88576V8.57147M9.25709 8.57147H14.7428" stroke="#929292" stroke-width="1.4" stroke-linecap="round" stroke-linejoin="round"/>
<path d="M21.1333 13.9075C21.2179 13.9075 21.3026 13.8763 21.3695 13.8094L22.9431 12.2358C23.0724 12.1065 23.0724 11.8926 22.9431 11.7633L21.3695 10.1897C21.2402 10.0605 21.0263 10.0605 20.897 10.1897C20.7677 10.319 20.7677 10.533 20.897 10.6622L22.2343 11.9996L20.897 13.3369C20.7677 13.4661 20.7677 13.6801 20.897 13.8094C20.9594 13.8763 21.0441 13.9075 21.1333 13.9075Z" fill="#929292"/>
</svg>
