<svg width="16" height="16" viewBox="0 0 16 16" fill="none" xmlns="http://www.w3.org/2000/svg">
<path d="M3.33331 4.66699H12.6666V13.3337C12.6666 13.6873 12.5261 14.0264 12.276 14.2764C12.026 14.5265 11.6869 14.667 11.3333 14.667H4.66665C4.31302 14.667 3.97382 14.5265 3.72378 14.2764C3.47373 14.0264 3.33331 13.6873 3.33331 13.3337V4.66699Z" stroke="#B5B4B4" stroke-width="1.2" stroke-miterlimit="10"/>
<path d="M1.33334 4.66683H3.76661C4.03175 4.66629 4.29074 4.58675 4.51043 4.43831C4.73011 4.28988 4.90059 4.07928 5.00001 3.8335L5.66668 2.1735C5.76506 1.92647 5.93502 1.71446 6.1548 1.56478C6.37457 1.4151 6.63401 1.33457 6.89991 1.3335H9.09994C9.36585 1.33457 9.62529 1.4151 9.84506 1.56478C10.0648 1.71446 10.235 1.92647 10.3333 2.1735L11 3.8335C11.0999 4.08034 11.2712 4.29166 11.4922 4.44019C11.7132 4.58871 11.9736 4.66762 12.2399 4.66683H14.6667" stroke="#B5B4B4" stroke-width="1.2" stroke-miterlimit="10"/>
</svg>
