<svg width="16" height="16" viewBox="0 0 16 16" fill="none" xmlns="http://www.w3.org/2000/svg">
<path d="M10.6667 2.66669H12.0001C12.3537 2.66669 12.6927 2.80716 12.9428 3.05721C13.1928 3.30726 13.3334 3.6464 13.3334 4.00002V13.3334C13.3334 13.687 13.1928 14.0261 12.9428 14.2762C12.6927 14.5262 12.3537 14.6667 12.0001 14.6667H4.00008C3.64646 14.6667 3.30726 14.5262 3.05721 14.2762C2.80716 14.0261 2.66675 13.687 2.66675 13.3334V4.00002C2.66675 3.6464 2.80716 3.30726 3.05721 3.05721C3.30726 2.80716 3.64646 2.66669 4.00008 2.66669H5.33341" stroke="#B5B4B4" stroke-width="1.2" stroke-miterlimit="10"/>
<path d="M6.66671 4.00002C6.31309 4.00002 5.97388 3.85954 5.72384 3.60949C5.47379 3.35945 5.33337 3.02031 5.33337 2.66668C5.33337 2.31306 5.47379 1.97392 5.72384 1.72387C5.97388 1.47383 6.31309 1.33335 6.66671 1.33335H9.33337C9.687 1.33335 10.026 1.47383 10.2761 1.72387C10.5261 1.97392 10.6667 2.31306 10.6667 2.66668C10.6667 3.02031 10.5261 3.35945 10.2761 3.60949C10.026 3.85954 9.687 4.00002 9.33337 4.00002H6.66671Z" stroke="#B5B4B4" stroke-width="1.2" stroke-miterlimit="10"/>
</svg>
