<svg width="30" height="30" viewBox="0 0 30 30" fill="none" xmlns="http://www.w3.org/2000/svg">
<path d="M19.0625 20.0014V20.6514H19.0629L19.0625 20.0014ZM15.024 7.00153L15.0241 6.35153L15.024 7.00153ZM8.5 15.1248L7.85 15.1245L7.85 15.1253L8.5 15.1248ZM10.2593 13.3655L9.79965 12.9059L10.2593 13.3655ZM19.5005 7.00259L19.5003 7.65259L19.5005 7.00259ZM19.5013 20.0011L19.5009 19.3511L19.5013 20.0011ZM18.4125 11.8748C18.4125 12.4132 17.976 12.8498 17.4375 12.8498V14.1498C18.6939 14.1498 19.7125 13.1312 19.7125 11.8748H18.4125ZM17.4375 10.8998C17.976 10.8998 18.4125 11.3363 18.4125 11.8748H19.7125C19.7125 10.6183 18.6939 9.59978 17.4375 9.59978V10.8998ZM16.4625 11.8748C16.4625 11.3363 16.899 10.8998 17.4375 10.8998V9.59978C16.181 9.59978 15.1625 10.6183 15.1625 11.8748H16.4625ZM17.4375 12.8498C16.899 12.8498 16.4625 12.4132 16.4625 11.8748H15.1625C15.1625 13.1312 16.181 14.1498 17.4375 14.1498V12.8498ZM19.0629 20.6514L19.5018 20.6511L19.5009 19.3511L19.062 19.3514L19.0629 20.6514ZM22.15 18.0011V9.00258H20.85V18.0011H22.15ZM10.5021 20.6514H19.0625V19.3514H10.5021V20.6514ZM12.677 13.8767L18.5793 20.4362L19.5457 19.5666L13.6434 13.0072L12.677 13.8767ZM19.5006 6.35259L15.0241 6.35153L15.0238 7.65153L19.5003 7.65259L19.5006 6.35259ZM15.0241 6.35153L10.5033 6.35047L10.503 7.65047L15.0238 7.65153L15.0241 6.35153ZM8.95962 15.5844L10.7189 13.8251L9.79965 12.9059L8.04038 14.6652L8.95962 15.5844ZM7.85 15.1253L7.85206 18.0033L9.15206 18.0024L9.15 15.1243L7.85 15.1253ZM7.85264 8.99933L7.85 15.1245L9.15 15.1251L9.15264 8.99989L7.85264 8.99933ZM13.6434 13.0072C12.6278 11.8785 10.8733 11.8323 9.79965 12.9059L10.7189 13.8251C11.2658 13.2782 12.1596 13.3017 12.677 13.8767L13.6434 13.0072ZM10.5021 19.3514C9.75686 19.3514 9.1526 18.7476 9.15206 18.0024L7.85206 18.0033C7.85311 19.4661 9.03925 20.6514 10.5021 20.6514V19.3514ZM10.5033 6.35047C9.0399 6.35013 7.85327 7.53598 7.85264 8.99933L9.15264 8.99989C9.15296 8.25441 9.75747 7.65029 10.503 7.65047L10.5033 6.35047ZM22.15 9.00258C22.15 7.53927 20.9639 6.35293 19.5006 6.35259L19.5003 7.65259C20.2458 7.65276 20.85 8.25712 20.85 9.00258H22.15ZM19.5018 20.6511C20.9646 20.6501 22.15 19.464 22.15 18.0011H20.85C20.85 18.7463 20.2461 19.3506 19.5009 19.3511L19.5018 20.6511Z" fill="#636364"/>
<path d="M9.5 23H20.5" stroke="#636364" stroke-width="1.3" stroke-linecap="round" stroke-linejoin="round"/>
<path d="M3.38348 17.7684C3.27761 17.7684 3.17174 17.7294 3.08816 17.6458L1.12119 15.6788C0.959602 15.5172 0.959602 15.2498 1.12119 15.0882L3.08816 13.1212C3.24975 12.9596 3.51721 12.9596 3.67881 13.1212C3.8404 13.2828 3.8404 13.5502 3.67881 13.7118L2.00716 15.3835L3.67881 17.0551C3.8404 17.2167 3.8404 17.4842 3.67881 17.6458C3.6008 17.7294 3.49493 17.7684 3.38348 17.7684Z" fill="#636364"/>
<path d="M26.6165 17.7684C26.7224 17.7684 26.8283 17.7294 26.9118 17.6458L28.8788 15.6788C29.0404 15.5172 29.0404 15.2498 28.8788 15.0882L26.9118 13.1212C26.7502 12.9596 26.4828 12.9596 26.3212 13.1212C26.1596 13.2828 26.1596 13.5502 26.3212 13.7118L27.9928 15.3835L26.3212 17.0551C26.1596 17.2167 26.1596 17.4842 26.3212 17.6458C26.3992 17.7294 26.5051 17.7684 26.6165 17.7684Z" fill="#636364"/>
</svg>
