<svg width="12" height="16" viewBox="0 0 12 16" fill="none" xmlns="http://www.w3.org/2000/svg">
<path d="M11.3334 6.66667V13.3333C11.3334 13.687 11.1929 14.0261 10.9429 14.2761C10.6928 14.5262 10.3536 14.6667 10 14.6667H2.00002C1.6464 14.6667 1.30736 14.5262 1.05731 14.2761C0.807264 14.0261 0.666687 13.687 0.666687 13.3333V2.66667C0.666687 2.31305 0.807264 1.97391 1.05731 1.72386C1.30736 1.47381 1.6464 1.33333 2.00002 1.33333H6.00002" stroke="#B5B4B4" stroke-width="1.2" stroke-linejoin="round"/>
<path d="M11.3334 6.66669H7.33339C6.97977 6.66669 6.64073 6.52621 6.39069 6.27617C6.14064 6.02612 6.00006 5.68698 6.00006 5.33336V1.33335L11.3334 6.66669Z" stroke="#B5B4B4" stroke-width="1.2" stroke-linejoin="round"/>
</svg>
