<svg width="24" height="24" viewBox="0 0 24 24" fill="none" xmlns="http://www.w3.org/2000/svg">
<path d="M15.25 17.2007V17.2007C16.3272 17.2 17.2 16.3265 17.2 15.2494V8.80153C17.2 7.69715 16.3049 6.80179 15.2005 6.80154L12.0192 6.80079L8.80246 6.80003C7.69804 6.79977 6.80246 7.69475 6.80199 8.79917L6.80005 13.2994M15.25 17.2007H8.80141C7.6974 17.2007 6.8022 16.3061 6.80141 15.2021L6.80005 13.2994M15.25 17.2007L10.8102 12.2666C10.0437 11.4147 8.71962 11.3798 7.90931 12.1901L6.80005 13.2994M15.25 10.6994C15.25 11.4173 14.668 11.9994 13.95 11.9994C13.2321 11.9994 12.65 11.4173 12.65 10.6994C12.65 9.98141 13.2321 9.39938 13.95 9.39938C14.668 9.39938 15.25 9.98141 15.25 10.6994Z" stroke="#929292" stroke-width="1.3" stroke-linecap="round" stroke-linejoin="round"/>
<path d="M2.70683 13.6142C2.62214 13.6142 2.53744 13.583 2.47058 13.5162L0.897004 11.9426C0.76773 11.8133 0.76773 11.5994 0.897004 11.4701L2.47058 9.89652C2.59985 9.76724 2.81382 9.76724 2.94309 9.89652C3.07237 10.0258 3.07237 10.2398 2.94309 10.369L1.60578 11.7063L2.94309 13.0437C3.07237 13.1729 3.07237 13.3869 2.94309 13.5162C2.88069 13.583 2.79599 13.6142 2.70683 13.6142Z" fill="#929292"/>
<path d="M21.2932 13.6142C21.3779 13.6142 21.4626 13.583 21.5294 13.5162L23.103 11.9426C23.2323 11.8133 23.2323 11.5994 23.103 11.4701L21.5294 9.89652C21.4002 9.76724 21.1862 9.76724 21.0569 9.89652C20.9276 10.0258 20.9276 10.2398 21.0569 10.369L22.3942 11.7063L21.0569 13.0437C20.9276 13.1729 20.9276 13.3869 21.0569 13.5162C21.1193 13.583 21.204 13.6142 21.2932 13.6142Z" fill="#929292"/>
</svg>
