<svg width="16" height="16" viewBox="0 0 16 16" fill="none" xmlns="http://www.w3.org/2000/svg">
<path fill-rule="evenodd" clip-rule="evenodd" d="M4.90864 6.9909L6.8158 7.99994L4.90877 9.00912C4.7179 8.90016 4.50996 8.81339 4.28819 8.75393C2.89664 8.38129 1.4615 9.21034 1.08906 10.6014C0.716678 11.9912 1.54646 13.4281 2.93612 13.8008C4.32789 14.1729 5.76332 13.345 6.13557 11.9531C6.28629 11.3901 6.24029 10.82 6.0397 10.3159L8.38307 8.82934L14.3767 12.0007C14.8607 12.2568 15.302 11.4809 14.7292 11.1627C14.4518 11.0089 12.0728 9.50778 9.69148 7.99991C12.0727 6.49181 14.4519 4.99121 14.7292 4.83735C15.302 4.51908 14.8607 3.74303 14.3767 3.99908L8.38307 7.17048L6.03996 5.68395C6.2403 5.17993 6.2863 4.60971 6.13558 4.04695C5.7632 2.65506 4.32777 1.8269 2.93613 2.19925C1.54647 2.57189 0.716685 4.00853 1.08907 5.39838C1.46145 6.78967 2.89662 7.61869 4.28819 7.24583C4.5101 7.18636 4.71789 7.09973 4.90864 6.9909ZM5.19525 11.7015C4.96075 12.5779 4.06314 13.0945 3.18775 12.8602C2.31147 12.6254 1.79496 11.729 2.02947 10.8527C2.26397 9.97626 3.16107 9.45988 4.03649 9.69414C4.91226 9.92864 5.4296 10.8254 5.19525 11.7015ZM5.19525 4.29825C4.96075 3.42159 4.06314 2.90524 3.18775 3.13959C2.31147 3.37409 1.79496 4.27058 2.02947 5.14687C2.26397 6.02328 3.16107 6.53988 4.03649 6.30553C4.91226 6.07103 5.4296 5.17454 5.19525 4.29825Z" fill="#B5B4B4"/>
</svg>
