<svg width="16" height="16" viewBox="0 0 16 16" fill="none" xmlns="http://www.w3.org/2000/svg">
<path d="M13.3333 6.66683V13.3335C13.3333 13.6871 13.1929 14.0263 12.9429 14.2763C12.6928 14.5264 12.3536 14.6668 12 14.6668H3.99999C3.64637 14.6668 3.30733 14.5264 3.05728 14.2763C2.80723 14.0263 2.66666 13.6871 2.66666 13.3335V2.66683C2.66666 2.31321 2.80723 1.97407 3.05728 1.72402C3.30733 1.47397 3.64637 1.3335 3.99999 1.3335H7.99999" stroke="#B5B4B4" stroke-width="1.2" stroke-linejoin="round"/>
<path d="M13.3334 6.66683H9.33336C8.97974 6.66683 8.6407 6.52635 8.39066 6.27631C8.14061 6.02626 8.00003 5.68712 8.00003 5.3335V1.3335L13.3334 6.66683Z" stroke="#B5B4B4" stroke-width="1.2" stroke-linejoin="round"/>
</svg>
