<svg width="16" height="16" viewBox="0 0 16 16" fill="none" xmlns="http://www.w3.org/2000/svg">
<path d="M2.3636 2C2.16284 2 2 2.16272 2 2.36361V10.3636C2 10.5645 2.16284 10.7272 2.3636 10.7272H5.27277V13.6364C5.27277 13.8372 5.43561 14 5.63637 14H13.6364C13.8372 14 14 13.8372 14 13.6364V5.63638C14 5.43548 13.8372 5.27277 13.6364 5.27264H10.7272V2.36348V2.36361C10.7272 2.16271 10.5644 2 10.3636 2L2.3636 2ZM2.72721 2.72721H9.99996V9.99996H2.72721V2.72721ZM10.7272 5.99995H13.2726V13.2727H5.99988V10.7273H10.3635L10.3638 10.7272C10.5645 10.7272 10.7274 10.5645 10.7274 10.3636V5.99992L10.7272 5.99995Z" fill="#4478FF" stroke="#4478FF" stroke-width="0.4"/>
</svg>
