<svg width="24" height="24" viewBox="0 0 24 24" fill="none" xmlns="http://www.w3.org/2000/svg">
<path d="M10.4 12.0002H18.4M10.4 7.2002H18.4M10.4 16.8002H18.4" stroke="#636364" stroke-width="1.4" stroke-linecap="round" stroke-linejoin="round"/>
<path d="M4.80005 7.01562V7.38103C5.14278 7.38103 5.26209 7.48923 5.25992 7.75708V8.1154C5.26209 8.63336 5.54408 8.8001 6.14929 8.8001V8.49855C5.79137 8.49855 5.69593 8.3726 5.69376 8.09766V7.64001C5.69593 7.44311 5.60916 7.28347 5.22521 7.22138V7.17881C5.60916 7.11495 5.69593 6.95531 5.69376 6.75664V6.30254C5.69593 6.02582 5.79137 5.89988 6.14929 5.90165V5.6001C5.54408 5.6001 5.26209 5.76684 5.25992 6.2848V6.64311C5.26209 6.90741 5.14712 7.01384 4.8174 7.01562H4.80005Z" fill="#636364"/>
<path d="M8.80005 7.38458V7.01917C8.45732 7.01917 8.33801 6.91096 8.34018 6.64311V6.2848C8.33801 5.76684 8.05601 5.6001 7.45081 5.6001V5.90165C7.80873 5.90165 7.90417 6.02759 7.90634 6.30254V6.76019C7.90417 6.95708 7.99094 7.11673 8.37489 7.17881V7.22138C7.99094 7.28524 7.90417 7.44489 7.90634 7.64356V8.09766C7.90417 8.37438 7.80873 8.50032 7.45081 8.49855V8.8001C8.05601 8.8001 8.33801 8.63336 8.34018 8.1154V7.75708C8.33801 7.49278 8.45298 7.38635 8.7827 7.38458H8.80005Z" fill="#636364"/>
<path d="M4.80005 11.8157V12.1811C5.14278 12.1811 5.26209 12.2893 5.25992 12.5571V12.9154C5.26209 13.4334 5.54408 13.6001 6.14929 13.6001V13.2986C5.79137 13.2986 5.69593 13.1727 5.69376 12.8977V12.4401C5.69593 12.2432 5.60916 12.0835 5.22521 12.0214V11.9789C5.60916 11.915 5.69593 11.7554 5.69376 11.5567V11.1026C5.69593 10.8259 5.79137 10.6999 6.14929 10.7017V10.4001C5.54408 10.4001 5.26209 10.5669 5.25992 11.0848V11.4432C5.26209 11.7075 5.14712 11.8139 4.8174 11.8157H4.80005Z" fill="#636364"/>
<path d="M8.80005 12.1846V11.8192C8.45732 11.8192 8.33801 11.711 8.34018 11.4432V11.0848C8.33801 10.5669 8.05601 10.4001 7.45081 10.4001V10.7017C7.80873 10.7017 7.90417 10.8276 7.90634 11.1026V11.5602C7.90417 11.7571 7.99094 11.9168 8.37489 11.9789V12.0214C7.99094 12.0853 7.90417 12.2449 7.90634 12.4436V12.8977C7.90417 13.1744 7.80873 13.3004 7.45081 13.2986V13.6001C8.05601 13.6001 8.33801 13.4334 8.34018 12.9154V12.5571C8.33801 12.2928 8.45298 12.1864 8.7827 12.1846H8.80005Z" fill="#636364"/>
<path d="M4.80005 16.6157V16.9811C5.14278 16.9811 5.26209 17.0893 5.25992 17.3572V17.7155C5.26209 18.2335 5.54408 18.4002 6.14929 18.4002V18.0986C5.79137 18.0986 5.69593 17.9727 5.69376 17.6978V17.2401C5.69593 17.0432 5.60916 16.8836 5.22521 16.8215V16.7789C5.60916 16.7151 5.69593 16.5554 5.69376 16.3567V15.9026C5.69593 15.6259 5.79137 15.5 6.14929 15.5017V15.2002C5.54408 15.2002 5.26209 15.3669 5.25992 15.8849V16.2432C5.26209 16.5075 5.14712 16.6139 4.8174 16.6157H4.80005Z" fill="#636364"/>
<path d="M8.80005 16.9847V16.6193C8.45732 16.6193 8.33801 16.5111 8.34018 16.2432V15.8849C8.33801 15.3669 8.05601 15.2002 7.45081 15.2002V15.5017C7.80873 15.5017 7.90417 15.6277 7.90634 15.9026V16.3603C7.90417 16.5572 7.99094 16.7168 8.37489 16.7789V16.8215C7.99094 16.8853 7.90417 17.045 7.90634 17.2437V17.6978C7.90417 17.9745 7.80873 18.1004 7.45081 18.0986V18.4002C8.05601 18.4002 8.33801 18.2335 8.34018 17.7155V17.3572C8.33801 17.0929 8.45298 16.9864 8.7827 16.9847H8.80005Z" fill="#636364"/>
</svg>
