<svg width="30" height="30" viewBox="0 0 30 30" fill="none" xmlns="http://www.w3.org/2000/svg">
<path d="M19.5013 20.0011L19.0625 20.0014H10.5021C9.39805 20.0014 8.50285 19.1068 8.50206 18.0028L8.5 15.1248L8.50264 8.99961C8.50311 7.89519 9.39869 7.00021 10.5031 7.00047L15.024 7.00153L19.5005 7.00259C20.6049 7.00285 21.5 7.8982 21.5 9.00258V18.0011C21.5 19.1051 20.6054 20.0004 19.5013 20.0011Z" stroke="#636364" stroke-width="1.3" stroke-linecap="round" stroke-linejoin="round"/>
<path d="M9.5 23H20.5" stroke="#636364" stroke-width="1.3" stroke-linecap="round" stroke-linejoin="round"/>
<path d="M11.5 13.0965V13.8958C12.0998 13.8958 12.3086 14.1325 12.3048 14.7184V15.5022C12.3086 16.6353 12.8021 17 13.8612 17V16.3404C13.2348 16.3404 13.0678 16.0649 13.064 15.4634V14.4623C13.0678 14.0316 12.9159 13.6824 12.244 13.5466V13.4534C12.9159 13.3137 13.0678 12.9645 13.064 12.5299V11.5366C13.0678 10.9313 13.2348 10.6558 13.8612 10.6596V10C12.8021 10 12.3086 10.3647 12.3048 11.4978V12.2816C12.3086 12.8598 12.1074 13.0926 11.5304 13.0965H11.5Z" fill="#636364"/>
<path d="M18.5 13.9035V13.1042C17.9002 13.1042 17.6914 12.8675 17.6952 12.2816V11.4978C17.6914 10.3647 17.1979 10 16.1388 10V10.6596C16.7652 10.6596 16.9322 10.9351 16.936 11.5366V12.5377C16.9322 12.9684 17.0841 13.3176 17.756 13.4534V13.5466C17.0841 13.6863 16.9322 14.0355 16.936 14.4701V15.4634C16.9322 16.0687 16.7652 16.3442 16.1388 16.3404V17C17.1979 17 17.6914 16.6353 17.6952 15.5022V14.7184C17.6914 14.1402 17.8926 13.9074 18.4696 13.9035H18.5Z" fill="#636364"/>
</svg>
