<svg width="20" height="20" viewBox="0 0 20 20" fill="none" xmlns="http://www.w3.org/2000/svg">
<rect width="20" height="20" fill="#282828"/>
<path d="M6.52249 7.7509L3.54336 10.6469L6.52249 13.5428C6.93593 13.9427 6.93593 14.5921 6.52249 14.9919C6.11117 15.3911 5.44524 15.3911 5.03392 14.9919L1.30849 11.3699C0.89717 10.9706 0.89717 10.3233 1.30849 9.92287L5.03392 6.30145C5.44524 5.89956 6.11117 5.89956 6.52249 6.30145C6.93593 6.70185 6.93593 7.35106 6.52249 7.7509ZM18.692 9.91108L14.9786 6.30142C14.5673 5.89953 13.9035 5.89953 13.4917 6.30142C13.0804 6.69917 13.0804 7.34653 13.4917 7.74476L16.4625 10.6326L13.4917 13.5204C13.0804 13.9202 13.0804 14.5655 13.4917 14.9658C13.903 15.365 14.5669 15.365 14.9786 14.9658L18.692 11.3535C19.1027 10.9563 19.1027 10.3093 18.692 9.91108Z" fill="#DFE8FF"/>
<path d="M10.9422 6.0157C10.3652 5.91738 9.81731 6.29102 9.71619 6.8519L8.42826 13.9442C8.32711 14.505 8.71149 15.0377 9.28847 15.136C9.86332 15.2364 10.4112 14.8627 10.5145 14.3019L11.8007 7.20751C11.9013 6.6486 11.517 6.11609 10.9422 6.0157Z" fill="#4478FF"/>
</svg>
