<svg width="30" height="30" viewBox="0 0 30 30" fill="none" xmlns="http://www.w3.org/2000/svg">
<path d="M13 15H23M13 9H23M13 21H23" stroke="#929292" stroke-width="1.4" stroke-linecap="round" stroke-linejoin="round"/>
<path d="M6 8.7694V9.22616C6.42842 9.22616 6.57755 9.36142 6.57484 9.69623V10.1441C6.57755 10.7916 6.93004 11 7.68655 11V10.6231C7.23915 10.6231 7.11985 10.4656 7.11714 10.122V9.54989C7.11985 9.30377 7.01139 9.10421 6.53145 9.02661V8.97339C7.01139 8.89357 7.11985 8.69401 7.11714 8.44568V7.87805C7.11985 7.53215 7.23915 7.37472 7.68655 7.37694V7C6.93004 7 6.57755 7.20843 6.57484 7.85588V8.30377C6.57755 8.63415 6.43384 8.76718 6.02169 8.7694H6Z" fill="#929292"/>
<path d="M11 9.2306V8.77384C10.5716 8.77384 10.4225 8.63858 10.4252 8.30377V7.85588C10.4225 7.20843 10.07 7 9.31345 7V7.37694C9.76085 7.37694 9.88015 7.53437 9.88286 7.87805V8.45011C9.88015 8.69623 9.98861 8.89579 10.4685 8.97339V9.02661C9.98861 9.10643 9.88015 9.30599 9.88286 9.55432V10.122C9.88015 10.4678 9.76085 10.6253 9.31345 10.6231V11C10.07 11 10.4225 10.7916 10.4252 10.1441V9.69623C10.4225 9.36585 10.5662 9.23282 10.9783 9.2306H11Z" fill="#929292"/>
<path d="M6 14.7694V15.2262C6.42842 15.2262 6.57755 15.3614 6.57484 15.6962V16.1441C6.57755 16.7916 6.93004 17 7.68655 17V16.6231C7.23915 16.6231 7.11985 16.4656 7.11714 16.122V15.5499C7.11985 15.3038 7.01139 15.1042 6.53145 15.0266V14.9734C7.01139 14.8936 7.11985 14.694 7.11714 14.4457V13.878C7.11985 13.5322 7.23915 13.3747 7.68655 13.3769V13C6.93004 13 6.57755 13.2084 6.57484 13.8559V14.3038C6.57755 14.6341 6.43384 14.7672 6.02169 14.7694H6Z" fill="#929292"/>
<path d="M11 15.2306V14.7738C10.5716 14.7738 10.4225 14.6386 10.4252 14.3038V13.8559C10.4225 13.2084 10.07 13 9.31345 13V13.3769C9.76085 13.3769 9.88015 13.5344 9.88286 13.878V14.4501C9.88015 14.6962 9.98861 14.8958 10.4685 14.9734V15.0266C9.98861 15.1064 9.88015 15.306 9.88286 15.5543V16.122C9.88015 16.4678 9.76085 16.6253 9.31345 16.6231V17C10.07 17 10.4225 16.7916 10.4252 16.1441V15.6962C10.4225 15.3659 10.5662 15.2328 10.9783 15.2306H11Z" fill="#929292"/>
<path d="M6 20.7694V21.2262C6.42842 21.2262 6.57755 21.3614 6.57484 21.6962V22.1441C6.57755 22.7916 6.93004 23 7.68655 23V22.6231C7.23915 22.6231 7.11985 22.4656 7.11714 22.122V21.5499C7.11985 21.3038 7.01139 21.1042 6.53145 21.0266V20.9734C7.01139 20.8936 7.11985 20.694 7.11714 20.4457V19.878C7.11985 19.5322 7.23915 19.3747 7.68655 19.3769V19C6.93004 19 6.57755 19.2084 6.57484 19.8559V20.3038C6.57755 20.6341 6.43384 20.7672 6.02169 20.7694H6Z" fill="#929292"/>
<path d="M11 21.2306V20.7738C10.5716 20.7738 10.4225 20.6386 10.4252 20.3038V19.8559C10.4225 19.2084 10.07 19 9.31345 19V19.3769C9.76085 19.3769 9.88015 19.5344 9.88286 19.878V20.4501C9.88015 20.6962 9.98861 20.8958 10.4685 20.9734V21.0266C9.98861 21.1064 9.88015 21.306 9.88286 21.5543V22.122C9.88015 22.4678 9.76085 22.6253 9.31345 22.6231V23C10.07 23 10.4225 22.7916 10.4252 22.1441V21.6962C10.4225 21.3659 10.5662 21.2328 10.9783 21.2306H11Z" fill="#929292"/>
</svg>
