<svg width="24" height="24" viewBox="0 0 24 24" fill="none" xmlns="http://www.w3.org/2000/svg">
<path d="M16.5013 17.0011L16.0625 17.0014H7.50206C6.39805 17.0014 5.50285 16.1068 5.50206 15.0028L5.5 12.1248L5.50264 5.99961C5.50311 4.89519 6.39869 4.00021 7.5031 4.00047L12.024 4.00153L16.5005 4.00259C17.6049 4.00285 18.5 4.8982 18.5 6.00258V15.0011C18.5 16.1051 17.6054 17.0004 16.5013 17.0011Z" stroke="#636364" stroke-width="1.3" stroke-linecap="round" stroke-linejoin="round"/>
<path d="M6.5 20H17.5" stroke="#636364" stroke-width="1.3" stroke-linecap="round" stroke-linejoin="round"/>
<path d="M8.5 10.0965V10.8958C9.09978 10.8958 9.30857 11.1325 9.30477 11.7184V12.5022C9.30857 13.6353 9.80206 14 10.8612 14V13.3404C10.2348 13.3404 10.0678 13.0649 10.064 12.4634V11.4623C10.0678 11.0316 9.91594 10.6824 9.24403 10.5466V10.4534C9.91594 10.3137 10.0678 9.96452 10.064 9.52993V8.53659C10.0678 7.93126 10.2348 7.65576 10.8612 7.65965V7C9.80206 7 9.30857 7.36474 9.30477 8.49778V9.2816C9.30857 9.85976 9.10738 10.0926 8.53037 10.0965H8.5Z" fill="#636364"/>
<path d="M15.5 10.9035V10.1042C14.9002 10.1042 14.6914 9.86752 14.6952 9.2816V8.49778C14.6914 7.36474 14.1979 7 13.1388 7V7.65965C13.7652 7.65965 13.9322 7.93514 13.936 8.53659V9.53769C13.9322 9.9684 14.0841 10.3176 14.756 10.4534V10.5466C14.0841 10.6863 13.9322 11.0355 13.936 11.4701V12.4634C13.9322 13.0687 13.7652 13.3442 13.1388 13.3404V14C14.1979 14 14.6914 13.6353 14.6952 12.5022V11.7184C14.6914 11.1402 14.8926 10.9074 15.4696 10.9035H15.5Z" fill="#636364"/>
</svg>
