<svg width="16" height="16" viewBox="0 0 16 16" fill="none" xmlns="http://www.w3.org/2000/svg">
<path d="M13.3333 6.66666V13.3333C13.3333 13.6869 13.1929 14.0261 12.9428 14.2761C12.6928 14.5262 12.3536 14.6667 12 14.6667H3.99996C3.64634 14.6667 3.3073 14.5262 3.05725 14.2761C2.8072 14.0261 2.66663 13.6869 2.66663 13.3333V2.66666C2.66663 2.31304 2.8072 1.9739 3.05725 1.72385C3.3073 1.4738 3.64634 1.33333 3.99996 1.33333H7.99996" stroke="#4478FF" stroke-width="1.2" stroke-linejoin="round"/>
<path d="M13.3333 6.66668H9.33333C8.97971 6.66668 8.64067 6.5262 8.39063 6.27615C8.14058 6.02611 8 5.68697 8 5.33334V1.33334L13.3333 6.66668Z" stroke="#4478FF" stroke-width="1.2" stroke-linejoin="round"/>
</svg>
