<svg xmlns="http://www.w3.org/2000/svg" width="20" height="20" viewBox="0 0 20 20" fill="none">
  <path d="M4.09576 16.4846C3.88516 16.4846 3.6957 16.3161 3.6957 16.0845C3.6957 15.7056 3.73784 15.0528 3.86415 14.316L2.72731 13.1792C1.06413 15.1371 0.874532 17.9374 0.853516 18.948C0.853516 19.1586 1.02197 19.348 1.25358 19.348C2.26413 19.327 5.06433 19.1374 7.02234 17.4742L5.88551 16.3374C5.12742 16.4425 4.47478 16.4635 4.09574 16.4846L4.09576 16.4846Z" fill="#8B8B8B"/>
  <circle cx="12.8535" cy="7.1792" r="3.25" fill="#8B8B8B" stroke="#DCDCDC" stroke-width="1.5"/>
  <path d="M15.3688 12.8427C19.1795 8.80038 19.8532 4.65277 19.8532 2.29473C19.8532 1.1156 18.9058 0.168213 17.7268 0.168213C15.3688 0.168213 11.2212 0.842012 7.17883 4.67374L7.07353 4.6316C5.38918 3.9158 3.45226 4.2737 2.16797 5.57898L0.399485 7.34747C-0.0215553 7.76851 0.104738 8.46333 0.631085 8.69492L3.59972 10.0633L2.61004 11.6425C2.35744 12.0214 2.42059 12.5268 2.73634 12.8427L7.15765 17.264C7.4734 17.5798 7.97876 17.6429 8.3578 17.3903L9.95786 16.3798L11.3263 19.3484C11.5789 19.8747 12.2737 20.001 12.6737 19.58L14.4212 17.8325C15.7055 16.5482 16.0844 14.5903 15.3686 12.927L15.3688 12.8427ZM12.8002 10.3163C11.0949 10.3163 9.70526 8.92671 9.70526 7.22138C9.70526 5.51605 11.0949 4.12646 12.8002 4.12646C14.5055 4.12646 15.8951 5.51605 15.8951 7.22138C15.8951 8.92671 14.5057 10.3163 12.8002 10.3163Z" fill="#DCDCDC"/>
</svg>