<svg width="30" height="30" viewBox="0 0 30 30" fill="none" xmlns="http://www.w3.org/2000/svg">
<path d="M11.5714 12.8333V10.3333M18.4286 12.8333V10.3333M11.5714 10.3333H11C9.89543 10.3333 9 11.2288 9 12.3333V20C9 21.1046 9.89543 22 11 22H19C20.1046 22 21 21.1046 21 20V12.3333C21 11.2288 20.1046 10.3333 19 10.3333H18.4286M11.5714 10.3333V9.5C11.5714 8.11929 12.7227 7 14.1429 7H15.8571C17.2773 7 18.4286 8.11929 18.4286 9.5V10.3333M11.5714 10.3333H18.4286" stroke="#929292" stroke-width="1.4" stroke-linecap="round" stroke-linejoin="round"/>
<path d="M12 16.2118V16.7827C12.5141 16.7827 12.6931 16.9518 12.6898 17.3703V17.9302C12.6931 18.7395 13.1161 19 14.0239 19V18.5288C13.487 18.5288 13.3438 18.332 13.3406 17.9024V17.1874C13.3438 16.8797 13.2137 16.6303 12.6377 16.5333V16.4667C13.2137 16.367 13.3438 16.1175 13.3406 15.8071V15.0976C13.3438 14.6652 13.487 14.4684 14.0239 14.4712V14C13.1161 14 12.6931 14.2605 12.6898 15.0698V15.6297C12.6931 16.0427 12.5206 16.209 12.026 16.2118H12Z" fill="#929292"/>
<path d="M18 16.7882V16.2173C17.4859 16.2173 17.3069 16.0482 17.3102 15.6297V15.0698C17.3069 14.2605 16.8839 14 15.9761 14V14.4712C16.513 14.4712 16.6562 14.668 16.6594 15.0976V15.8126C16.6562 16.1203 16.7863 16.3697 17.3623 16.4667V16.5333C16.7863 16.633 16.6562 16.8825 16.6594 17.1929V17.9024C16.6562 18.3348 16.513 18.5316 15.9761 18.5288V19C16.8839 19 17.3069 18.7395 17.3102 17.9302V17.3703C17.3069 16.9573 17.4794 16.791 17.974 16.7882H18Z" fill="#929292"/>
<path d="M12 16.2118V16.7827C12.5141 16.7827 12.6931 16.9518 12.6898 17.3703V17.9302C12.6931 18.7395 13.1161 19 14.0239 19V18.5288C13.487 18.5288 13.3438 18.332 13.3406 17.9024V17.1874C13.3438 16.8797 13.2137 16.6303 12.6377 16.5333V16.4667C13.2137 16.367 13.3438 16.1175 13.3406 15.8071V15.0976C13.3438 14.6652 13.487 14.4684 14.0239 14.4712V14C13.1161 14 12.6931 14.2605 12.6898 15.0698V15.6297C12.6931 16.0427 12.5206 16.209 12.026 16.2118H12Z" fill="#929292"/>
<path d="M18 16.7882V16.2173C17.4859 16.2173 17.3069 16.0482 17.3102 15.6297V15.0698C17.3069 14.2605 16.8839 14 15.9761 14V14.4712C16.513 14.4712 16.6562 14.668 16.6594 15.0976V15.8126C16.6562 16.1203 16.7863 16.3697 17.3623 16.4667V16.5333C16.7863 16.633 16.6562 16.8825 16.6594 17.1929V17.9024C16.6562 18.3348 16.513 18.5316 15.9761 18.5288V19C16.8839 19 17.3069 18.7395 17.3102 17.9302V17.3703C17.3069 16.9573 17.4794 16.791 17.974 16.7882H18Z" fill="#929292"/>
</svg>
