<svg width="24" height="24" viewBox="0 0 24 24" fill="none" xmlns="http://www.w3.org/2000/svg">
<path d="M5.50904 18.8544C5.3071 18.8544 5.12542 18.6929 5.12542 18.4708C5.12542 18.1074 5.16584 17.4815 5.28695 16.7749L4.19681 15.6848C2.60196 17.5623 2.42015 20.2475 2.39999 21.2166C2.39999 21.4185 2.56152 21.6002 2.78362 21.6002C3.75266 21.5801 6.43783 21.3983 8.3154 19.8034L7.22527 18.7132C6.49832 18.8141 5.8725 18.8342 5.50903 18.8544L5.50904 18.8544Z" fill="#4478FF"/>
<path d="M17.2781 14.5538C20.9323 10.6776 21.5784 6.70033 21.5784 4.43916C21.5784 3.30847 20.6699 2.4 19.5393 2.4C17.2782 2.4 13.3009 3.04612 9.42463 6.72045L9.32366 6.68003C7.7085 5.99364 5.85115 6.33683 4.61962 7.5885L2.92378 9.28434C2.52004 9.68808 2.64115 10.3544 3.14587 10.5764L5.99255 11.8886L5.04353 13.403C4.8013 13.7663 4.86186 14.2509 5.16464 14.5538L9.40433 18.7935C9.70711 19.0963 10.1917 19.1568 10.5552 18.9146L12.0895 17.9456L13.4017 20.7923C13.6439 21.297 14.3102 21.4181 14.6938 21.0143L16.3695 19.3387C17.601 18.1071 17.9644 16.2296 17.278 14.6346L17.2781 14.5538ZM14.8151 12.1312C13.1798 12.1312 11.8473 10.7987 11.8473 9.16342C11.8473 7.52815 13.1798 6.19564 14.8151 6.19564C16.4503 6.19564 17.7828 7.52815 17.7828 9.16342C17.7828 10.7987 16.4505 12.1312 14.8151 12.1312Z" fill="#A1BBFF"/>
<path d="M14.8167 7.14512C14.4735 7.14512 14.1706 7.42776 14.1706 7.79124C14.1706 8.13443 14.4533 8.43736 14.8167 8.43736C15.2205 8.43736 15.5637 8.76041 15.5637 9.18431C15.5637 9.52751 15.8463 9.83044 16.2098 9.83044C16.5733 9.83015 16.8356 9.50724 16.8356 9.16405C16.8356 8.05362 15.9272 7.14515 14.8167 7.14515V7.14512Z" fill="#4478FF"/>
</svg>
