<svg xmlns="http://www.w3.org/2000/svg" width="20" height="20" viewBox="0 0 20 20" fill="none">
  <path d="M4.38921 16.4736C4.17862 16.4736 3.98915 16.3051 3.98915 16.0735C3.98915 15.6946 4.0313 15.0419 4.1576 14.305L3.02077 13.1682C1.35759 15.1261 1.16799 17.9264 1.14697 18.937C1.14697 19.1476 1.31542 19.337 1.54703 19.337C2.55758 19.316 5.35779 19.1264 7.3158 17.4632L6.17896 16.3264C5.42087 16.4316 4.76824 16.4526 4.3892 16.4736L4.38921 16.4736Z" fill="#6993FF"/>
  <circle cx="13.147" cy="7.16821" r="3.25" fill="white" stroke="#4478FF" stroke-width="1.5"/>
  <path d="M15.3683 12.8427C19.179 8.80038 19.8527 4.65277 19.8527 2.29473C19.8527 1.1156 18.9054 0.168213 17.7263 0.168213C15.3683 0.168213 11.2207 0.842012 7.17834 4.67374L7.07304 4.6316C5.38869 3.9158 3.45177 4.2737 2.16749 5.57898L0.398997 7.34747C-0.0220436 7.76851 0.104249 8.46333 0.630597 8.69492L3.59923 10.0633L2.60955 11.6425C2.35695 12.0214 2.4201 12.5268 2.73585 12.8427L7.15717 17.264C7.47291 17.5798 7.97827 17.6429 8.35731 17.3903L9.95737 16.3798L11.3258 19.3484C11.5784 19.8747 12.2732 20.001 12.6732 19.58L14.4207 17.8325C15.705 16.5482 16.0839 14.5903 15.3681 12.927L15.3683 12.8427ZM12.7997 10.3163C11.0944 10.3163 9.70477 8.92671 9.70477 7.22138C9.70477 5.51605 11.0944 4.12646 12.7997 4.12646C14.505 4.12646 15.8946 5.51605 15.8946 7.22138C15.8946 8.92671 14.5052 10.3163 12.7997 10.3163Z" fill="#4478FF"/>
</svg>