<svg width="14" height="16" viewBox="0 0 14 16" fill="none" xmlns="http://www.w3.org/2000/svg">
<g id="Group 39">
<path id="Vector" d="M2.3335 4.66602H11.6668V13.3327C11.6668 13.6863 11.5263 14.0254 11.2762 14.2755C11.0262 14.5255 10.6871 14.666 10.3335 14.666H3.66683C3.31321 14.666 2.97401 14.5255 2.72396 14.2755C2.47391 14.0254 2.3335 13.6863 2.3335 13.3327V4.66602Z" stroke="#636364" stroke-width="1.2" stroke-miterlimit="10"/>
<path id="Vector_2" d="M0.333496 4.66634H2.76676C3.0319 4.6658 3.29089 4.58626 3.51058 4.43783C3.73027 4.28939 3.90074 4.07879 4.00016 3.83301L4.66683 2.17301C4.76521 1.92598 4.93518 1.71397 5.15495 1.56429C5.37472 1.41461 5.63416 1.33408 5.90006 1.33301H8.1001C8.366 1.33408 8.62544 1.41461 8.84521 1.56429C9.06499 1.71397 9.23511 1.92598 9.3335 2.17301L10.0002 3.83301C10.1 4.07985 10.2713 4.29118 10.4923 4.4397C10.7134 4.58822 10.9738 4.66713 11.2401 4.66634H13.6668" stroke="#636364" stroke-width="1.2" stroke-miterlimit="10"/>
</g>
</svg>
