<svg width="20" height="20" viewBox="0 0 20 20" fill="none" xmlns="http://www.w3.org/2000/svg">
<path d="M4.59088 15.7121C4.42259 15.7121 4.27119 15.5775 4.27119 15.3924C4.27119 15.0897 4.30487 14.568 4.40579 13.9792L3.49735 13.0708C2.1683 14.6354 2.01679 16.8731 2 17.6806C2 17.8489 2.13461 18.0003 2.31969 18.0003C3.12722 17.9835 5.36486 17.832 6.92951 16.503L6.02106 15.5945C5.41527 15.6785 4.89376 15.6953 4.59086 15.7121L4.59088 15.7121Z" fill="#4478FF"/>
<path d="M14.3987 12.1282C17.4439 8.89797 17.9822 5.58361 17.9822 3.6993C17.9822 2.75706 17.2252 2 16.283 2C14.3987 2 11.0844 2.53843 7.85412 5.60037L7.76997 5.56669C6.42401 4.9947 4.87622 5.28069 3.84994 6.32375L2.43674 7.73695C2.10029 8.0734 2.20121 8.62863 2.62182 8.81369L4.99405 9.9072L4.2032 11.1691C4.00134 11.4719 4.05181 11.8758 4.30412 12.1282L7.8372 15.6612C8.08951 15.9136 8.49334 15.964 8.79623 15.7622L10.0748 14.9546L11.1684 17.3269C11.3702 17.7475 11.9254 17.8484 12.2451 17.512L13.6415 16.1155C14.6678 15.0893 14.9706 13.5247 14.3986 12.1955L14.3987 12.1282ZM12.3461 10.1093C10.9834 10.1093 9.87299 8.99891 9.87299 7.63618C9.87299 6.27346 10.9834 5.16303 12.3461 5.16303C13.7089 5.16303 14.8193 6.27346 14.8193 7.63618C14.8193 8.99891 13.709 10.1093 12.3461 10.1093Z" fill="#DFE8FF"/>
<path d="M12.347 5.9541C12.061 5.9541 11.8086 6.18963 11.8086 6.49253C11.8086 6.77853 12.0441 7.03097 12.347 7.03097C12.6835 7.03097 12.9695 7.30018 12.9695 7.65343C12.9695 7.93943 13.205 8.19187 13.5079 8.19187C13.8108 8.19163 14.0294 7.92253 14.0294 7.63655C14.0294 6.71119 13.2724 5.95413 12.347 5.95413V5.9541Z" fill="#4478FF"/>
</svg>
