<svg width="24" height="24" viewBox="0 0 24 24" fill="none" xmlns="http://www.w3.org/2000/svg">
<path d="M9.25709 10.2668V8.26676M14.7428 10.2668V8.26676M9.25709 8.26676H9.19995C8.09538 8.26676 7.19995 9.16219 7.19995 10.2668V15.6001C7.19995 16.7047 8.09538 17.6001 9.19995 17.6001H14.8C15.9045 17.6001 16.8 16.7047 16.8 15.6001V10.2668C16.8 9.16219 15.9045 8.26676 14.8 8.26676H14.7428M9.25709 8.26676V7.6001C9.25709 6.49553 10.1781 5.6001 11.3142 5.6001H12.6857C13.8218 5.6001 14.7428 6.49553 14.7428 7.6001V8.26676M9.25709 8.26676H14.7428" stroke="#929292" stroke-width="1.4" stroke-linecap="round" stroke-linejoin="round"/>
<path d="M9.59998 12.9694V13.4261C10.0113 13.4261 10.1544 13.5614 10.1518 13.8962V14.3441C10.1544 14.9915 10.4928 15.2 11.2191 15.2V14.823C10.7896 14.823 10.675 14.6656 10.6724 14.3219V13.7498C10.675 13.5037 10.5709 13.3042 10.1102 13.2266V13.1733C10.5709 13.0935 10.675 12.894 10.6724 12.6456V12.078C10.675 11.7321 10.7896 11.5747 11.2191 11.5769V11.2C10.4928 11.2 10.1544 11.4084 10.1518 12.0558V12.5037C10.1544 12.8341 10.0165 12.9671 9.6208 12.9694H9.59998Z" fill="#929292"/>
<path d="M14.4 13.4306V12.9738C13.9887 12.9738 13.8455 12.8385 13.8481 12.5037V12.0558C13.8455 11.4084 13.5071 11.2 12.7809 11.2V11.5769C13.2104 11.5769 13.3249 11.7343 13.3275 12.078V12.6501C13.3249 12.8962 13.429 13.0957 13.8898 13.1733V13.2266C13.429 13.3064 13.3249 13.5059 13.3275 13.7543V14.3219C13.3249 14.6678 13.2104 14.8252 12.7809 14.823V15.2C13.5071 15.2 13.8455 14.9915 13.8481 14.3441V13.8962C13.8455 13.5658 13.9835 13.4328 14.3792 13.4306H14.4Z" fill="#929292"/>
<path d="M9.59998 12.9694V13.4261C10.0113 13.4261 10.1544 13.5614 10.1518 13.8962V14.3441C10.1544 14.9915 10.4928 15.2 11.2191 15.2V14.823C10.7896 14.823 10.675 14.6656 10.6724 14.3219V13.7498C10.675 13.5037 10.5709 13.3042 10.1102 13.2266V13.1733C10.5709 13.0935 10.675 12.894 10.6724 12.6456V12.078C10.675 11.7321 10.7896 11.5747 11.2191 11.5769V11.2C10.4928 11.2 10.1544 11.4084 10.1518 12.0558V12.5037C10.1544 12.8341 10.0165 12.9671 9.6208 12.9694H9.59998Z" fill="#929292"/>
<path d="M14.4 13.4306V12.9738C13.9887 12.9738 13.8455 12.8385 13.8481 12.5037V12.0558C13.8455 11.4084 13.5071 11.2 12.7809 11.2V11.5769C13.2104 11.5769 13.3249 11.7343 13.3275 12.078V12.6501C13.3249 12.8962 13.429 13.0957 13.8898 13.1733V13.2266C13.429 13.3064 13.3249 13.5059 13.3275 13.7543V14.3219C13.3249 14.6678 13.2104 14.8252 12.7809 14.823V15.2C13.5071 15.2 13.8455 14.9915 13.8481 14.3441V13.8962C13.8455 13.5658 13.9835 13.4328 14.3792 13.4306H14.4Z" fill="#929292"/>
</svg>
