<svg width="56" height="56" viewBox="0 0 56 56" fill="none" xmlns="http://www.w3.org/2000/svg">
<path d="M27.8777 17.2834C29.0665 17.2834 30.0073 16.3422 30.0073 15.1538V7.12962C30.0073 5.94081 29.0661 5 27.8777 5C26.6889 5 25.748 5.94116 25.748 7.12962V15.104C25.748 16.2928 26.6889 17.2834 27.8777 17.2834Z" fill="#6993FF"/>
<path d="M16.4859 17.7784C16.8328 18.6204 17.625 19.1158 18.4669 19.1158C18.7641 19.1158 19.0118 19.0664 19.3089 18.9673C20.3986 18.5216 20.9434 17.2335 20.448 16.1439L17.3772 8.76381C16.9315 7.67414 15.6933 7.12931 14.5538 7.6247C13.4642 8.07039 12.9194 9.35843 13.4147 10.4481L16.4859 17.7784Z" fill="#6993FF"/>
<path d="M36.4472 18.9685C36.695 19.0677 36.9921 19.1171 37.2892 19.1171C38.1312 19.1171 38.9237 18.6216 39.2702 17.7797L42.341 10.3996C42.7867 9.30993 42.2916 8.07168 41.2019 7.5762C40.0632 7.18026 38.7751 7.72511 38.3294 8.81481L35.2586 16.1949C34.8126 17.2842 35.3575 18.5224 36.4472 18.9685L36.4472 18.9685Z" fill="#6993FF"/>
<path d="M47.8011 35.8036L41.9155 23.5711C41.5662 22.8284 40.8183 22.333 39.9704 22.333H16.03C15.1822 22.333 14.4338 22.8284 14.0849 23.5711L8.19935 35.8036C8.04975 36.1007 8 36.3978 8 36.7446V49.1257C8 50.3144 8.94773 51.2551 10.1445 51.2551H45.8555C47.0526 51.2551 48 50.314 48 49.1257V36.7446C48 36.4472 47.9503 36.1007 47.8007 35.8036H47.8011ZM17.4267 26.6416H38.6239L42.3148 34.318H13.6861L17.4267 26.6416Z" fill="#DFE8FF"/>
</svg>
