<svg width="16" height="16" viewBox="0 0 16 16" fill="none" xmlns="http://www.w3.org/2000/svg">
<path d="M4.99883 12C4.82121 12 4.64359 11.9346 4.50336 11.7943L1.20333 8.4943C0.932223 8.2232 0.932223 7.77447 1.20333 7.50336L4.50336 4.20333C4.77446 3.93222 5.22319 3.93222 5.4943 4.20333C5.76541 4.47444 5.76541 4.92317 5.4943 5.19427L2.68974 7.99883L5.4943 10.8034C5.76541 11.0745 5.76541 11.5232 5.4943 11.7943C5.36342 11.9346 5.1858 12 4.99883 12Z" fill="#4478FF"/>
<path d="M11.0012 12C11.1788 12 11.3564 11.9346 11.4966 11.7943L14.7967 8.4943C15.0678 8.2232 15.0678 7.77447 14.7967 7.50336L11.4966 4.20333C11.2255 3.93222 10.7768 3.93222 10.5057 4.20333C10.2346 4.47444 10.2346 4.92317 10.5057 5.19427L13.3103 7.99883L10.5057 10.8034C10.2346 11.0745 10.2346 11.5232 10.5057 11.7943C10.6366 11.9346 10.8142 12 11.0012 12Z" fill="#4478FF"/>
</svg>
