<svg width="12" height="10" viewBox="0 0 12 10" fill="none" xmlns="http://www.w3.org/2000/svg">
<path d="M12 1.63532V5.87178C12 6.05914 11.9255 6.23869 11.7931 6.37108C11.6608 6.50347 11.4812 6.57794 11.2938 6.57794H2.40423L3.69632 7.87003C3.82789 8.0023 3.90165 8.18126 3.90165 8.36778C3.90165 8.55431 3.82789 8.73327 3.69632 8.86554C3.56405 8.9971 3.38509 9.07086 3.19857 9.07086C3.01204 9.07086 2.83308 8.9971 2.70082 8.86554L0.201242 6.37308C0.136939 6.30593 0.086582 6.22674 0.053014 6.14009C-0.0176713 5.96822 -0.0176713 5.77543 0.053014 5.60346C0.086585 5.51681 0.136939 5.43761 0.201242 5.37047L2.70082 2.87801C2.88261 2.72234 3.13085 2.66938 3.36028 2.73723C3.58983 2.80508 3.76928 2.98463 3.83713 3.21407C3.90509 3.44363 3.85202 3.69186 3.69634 3.87366L2.40425 5.16575H10.5876V1.63527C10.5876 1.38302 10.7222 1.14992 10.9407 1.02379C11.1591 0.897668 11.4283 0.897668 11.6467 1.02379C11.8652 1.14992 12 1.38307 12 1.63532Z" fill="white"/>
</svg>
