<svg width="28" height="24" viewBox="0 0 28 24" fill="none" xmlns="http://www.w3.org/2000/svg">
<path d="M25.9 14.107H25.2V12.707C25.2 11.5931 24.7575 10.5248 23.9698 9.73713C23.1822 8.94948 22.1139 8.50698 21 8.50698H15.4V5.31862C15.9338 5.01043 16.351 4.53472 16.5869 3.96526C16.8227 3.39581 16.8641 2.76443 16.7046 2.16906C16.5451 1.57368 16.1935 1.04759 15.7045 0.672361C15.2155 0.297135 14.6164 0.09375 14 0.09375C13.3836 0.09375 12.7845 0.297135 12.2955 0.672361C11.8065 1.04759 11.4549 1.57368 11.2954 2.16906C11.1359 2.76443 11.1773 3.39581 11.4131 3.96526C11.649 4.53472 12.0662 5.01043 12.6 5.31862V8.50698H7C5.88609 8.50698 4.8178 8.94948 4.03015 9.73713C3.2425 10.5248 2.8 11.5931 2.8 12.707V14.107H2.1C1.54305 14.107 1.0089 14.3282 0.615076 14.7221C0.221249 15.1159 0 15.65 0 16.207C0 16.7639 0.221249 17.2981 0.615076 17.6919C1.0089 18.0857 1.54305 18.307 2.1 18.307H2.8V19.707C2.8 20.8209 3.2425 21.8892 4.03015 22.6768C4.8178 23.4645 5.88609 23.907 7 23.907H21C22.1139 23.907 23.1822 23.4645 23.9698 22.6768C24.7575 21.8892 25.2 20.8209 25.2 19.707V18.307H25.9C26.457 18.307 26.9911 18.0857 27.3849 17.6919C27.7787 17.2981 28 16.7639 28 16.207C28 15.65 27.7787 15.1159 27.3849 14.7221C26.9911 14.3282 26.457 14.107 25.9 14.107ZM11.2 16.207C11.2 16.6223 11.0768 17.0283 10.8461 17.3737C10.6153 17.719 10.2874 17.9882 9.90364 18.1471C9.51991 18.3061 9.09767 18.3477 8.69031 18.2666C8.28295 18.1856 7.90877 17.9856 7.61508 17.6919C7.32139 17.3982 7.12138 17.024 7.04035 16.6167C6.95932 16.2093 7.00091 15.7871 7.15985 15.4033C7.3188 15.0196 7.58796 14.6916 7.9333 14.4609C8.27865 14.2301 8.68466 14.107 9.1 14.107C9.65695 14.107 10.1911 14.3282 10.5849 14.7221C10.9788 15.1159 11.2 15.65 11.2 16.207ZM21 16.207C21 16.6223 20.8768 17.0283 20.6461 17.3737C20.4153 17.719 20.0874 17.9882 19.7036 18.1471C19.3199 18.3061 18.8977 18.3477 18.4903 18.2666C18.083 18.1856 17.7088 17.9856 17.4151 17.6919C17.1214 17.3982 16.9214 17.024 16.8404 16.6167C16.7593 16.2093 16.8009 15.7871 16.9599 15.4033C17.1188 15.0196 17.388 14.6916 17.7333 14.4609C18.0786 14.2301 18.4847 14.107 18.9 14.107C19.457 14.107 19.9911 14.3282 20.3849 14.7221C20.7787 15.1159 21 15.65 21 16.207Z" fill="#DCDCDC"/>
</svg>
