<svg width="12" height="12" viewBox="0 0 12 12" fill="none" xmlns="http://www.w3.org/2000/svg">
<path d="M6.7054 8.49985L4.5854 6.35485C4.53854 6.30837 4.50134 6.25307 4.47595 6.19214C4.45057 6.13121 4.4375 6.06586 4.4375 5.99985C4.4375 5.93385 4.45057 5.86849 4.47595 5.80756C4.50134 5.74663 4.53854 5.69133 4.5854 5.64485L6.7054 3.52485C6.75188 3.47799 6.80718 3.44079 6.86811 3.41541C6.92904 3.39002 6.99439 3.37695 7.0604 3.37695C7.1264 3.37695 7.19176 3.39002 7.25269 3.41541C7.31362 3.44079 7.36892 3.47799 7.4154 3.52485C7.50852 3.61853 7.5608 3.74526 7.5608 3.87735C7.5608 4.00944 7.50852 4.13617 7.4154 4.22985L5.6454 5.99985L7.4154 7.76985C7.50777 7.86298 7.55985 7.98868 7.5604 8.11985C7.56078 8.18565 7.54817 8.25089 7.52329 8.3118C7.4984 8.37272 7.46174 8.42813 7.4154 8.47485C7.37059 8.52339 7.31661 8.56257 7.25657 8.59012C7.19653 8.61767 7.13163 8.63306 7.06561 8.63538C6.99959 8.63771 6.93377 8.62692 6.87194 8.60366C6.81012 8.5804 6.75351 8.54512 6.7054 8.49985Z" fill="white"/>
</svg>
