<svg xmlns="http://www.w3.org/2000/svg" width="22" height="22" viewBox="0 0 22 22" fill="none">
  <path d="M16.5 18.079H12.1L7.20499 21.335C6.47899 21.819 5.5 21.302 5.5 20.422V18.079C2.2 18.079 0 15.879 0 12.579V5.979C0 2.679 2.2 0.479004 5.5 0.479004H16.5C19.8 0.479004 22 2.679 22 5.979V12.579C22 15.879 19.8 18.079 16.5 18.079Z" fill="#4478FF"/>
  <path d="M10.9996 11.006C10.5486 11.006 10.1746 10.632 10.1746 10.181V9.95005C10.1746 8.67405 11.1096 8.04704 11.4616 7.80504C11.8686 7.53004 12.0006 7.34304 12.0006 7.05704C12.0006 6.50704 11.5496 6.05601 10.9996 6.05601C10.4496 6.05601 9.99863 6.50704 9.99863 7.05704C9.99863 7.50804 9.62463 7.88204 9.17363 7.88204C8.72263 7.88204 8.34863 7.50804 8.34863 7.05704C8.34863 5.59404 9.5366 4.40601 10.9996 4.40601C12.4626 4.40601 13.6506 5.59404 13.6506 7.05704C13.6506 8.31104 12.7266 8.93802 12.3856 9.16902C11.9566 9.45502 11.8246 9.64205 11.8246 9.95005V10.181C11.8246 10.643 11.4506 11.006 10.9996 11.006Z" fill="white"/>
  <path d="M10.9998 13.8661C10.5378 13.8661 10.1748 13.4921 10.1748 13.0411C10.1748 12.5901 10.5488 12.2161 10.9998 12.2161C11.4508 12.2161 11.8248 12.5901 11.8248 13.0411C11.8248 13.4921 11.4618 13.8661 10.9998 13.8661Z" fill="white"/>
</svg>