<svg width="20" height="20" viewBox="0 0 20 20" fill="none" xmlns="http://www.w3.org/2000/svg">
<circle cx="10" cy="10" r="9" fill="#929292"/>
<path d="M8.99894 7.12554C9.2162 6.74996 9.62044 6.5 10.0822 6.5C10.7725 6.5 11.3322 7.05964 11.3322 7.75C11.3322 8.44036 10.7725 9 10.0822 9C9.66796 9 9.33217 9.33579 9.33217 9.75V10.75C9.33217 11.1642 9.66796 11.5 10.0822 11.5C10.4964 11.5 10.8322 11.1642 10.8322 10.75V10.3965C11.9864 10.07 12.8322 9.00878 12.8322 7.75C12.8322 6.23122 11.601 5 10.0822 5C9.06334 5 8.17489 5.55444 7.70053 6.37446C7.49312 6.733 7.61564 7.1918 7.97419 7.3992C8.33274 7.60661 8.79153 7.48409 8.99894 7.12554Z" fill="white"/>
<path d="M10.0822 13C9.66794 13 9.33216 13.3358 9.33216 13.75C9.33216 14.1642 9.66794 14.5 10.0822 14.5H10.0911C10.5054 14.5 10.8411 14.1642 10.8411 13.75C10.8411 13.3358 10.5054 13 10.0911 13H10.0822Z" fill="white"/>
</svg>
