<svg width="12" height="12" viewBox="0 0 12 12" fill="none" xmlns="http://www.w3.org/2000/svg">
<path d="M10.8001 0H1.19993C0.881715 0 0.576461 0.126362 0.351462 0.351462C0.126362 0.576461 0 0.881715 0 1.19993V10.8001C0 11.1183 0.126362 11.4235 0.351462 11.6485C0.576461 11.8736 0.881715 12 1.19993 12H10.8001C11.1183 12 11.4235 11.8736 11.6485 11.6485C11.8736 11.4235 12 11.1183 12 10.8001V1.19993C12 0.881715 11.8736 0.576461 11.6485 0.351462C11.4235 0.126362 11.1183 0 10.8001 0ZM1.19993 1.19993H2.99992V2.99992H1.19993V1.19993ZM10.8001 10.8001H1.19993V4.20001H10.8001V10.8001ZM10.8001 3.00018L4.20001 3.00008V1.20008H10.8001V3.00018Z" fill="white"/>
</svg>
