<svg xmlns="http://www.w3.org/2000/svg" width="14" height="14" viewBox="0 0 14 14" fill="none">
  <path fill-rule="evenodd" clip-rule="evenodd" d="M11.2677 13.7059C11.009 13.9646 10.5895 13.9646 10.3308 13.7059C10.072 13.4471 10.072 13.0277 10.3308 12.7689L10.8873 12.2124H3.67422C2.89412 12.2124 2.26172 11.58 2.26172 10.7999V4.22621C1.45994 4.08945 0.849609 3.39124 0.849609 2.55049V1.80049C0.849609 0.861604 1.61073 0.100489 2.54961 0.100489H3.29961C4.23849 0.100489 4.99961 0.861604 4.99961 1.80049V2.55049C4.99961 3.39152 4.38888 4.0899 3.58672 4.22635V10.7999C3.58672 10.8482 3.62589 10.8874 3.67422 10.8874H10.8873L10.3308 10.3309C10.072 10.0721 10.072 9.65267 10.3308 9.39394C10.5895 9.13522 11.009 9.13522 11.2677 9.39394L12.9552 11.0814C13.2139 11.3402 13.2139 11.7596 12.9552 12.0184L11.2677 13.7059ZM2.26172 4.02289C2.23645 4.01798 2.2114 4.01243 2.1866 4.00626C2.2114 4.01241 2.23645 4.01795 2.26172 4.02285V4.02289ZM3.66059 0.344207C4.31426 0.506073 4.79883 1.09659 4.79883 1.80029V2.55029C4.79883 3.28025 4.27741 3.88843 3.58672 4.02269V4.02304C4.2778 3.88908 4.79961 3.28072 4.79961 2.55049V1.80049C4.79961 1.09651 4.31465 0.505795 3.66059 0.344207ZM2.45775 2.91416C2.29466 2.87346 2.17383 2.72599 2.17383 2.55029V1.80029C2.17383 1.59319 2.34172 1.42529 2.54883 1.42529H3.29883C3.33052 1.42529 3.36129 1.42922 3.39069 1.43663C3.36153 1.42935 3.33102 1.42549 3.29961 1.42549H2.54961C2.3425 1.42549 2.17461 1.59338 2.17461 1.80049V2.55049C2.17461 2.7259 2.29505 2.87319 2.45775 2.91416ZM2.37461 2.55049C2.37461 2.64714 2.45296 2.72549 2.54961 2.72549H3.29961C3.39626 2.72549 3.47461 2.64714 3.47461 2.55049V1.80049C3.47461 1.70384 3.39626 1.62549 3.29961 1.62549H2.54961C2.45296 1.62549 2.37461 1.70384 2.37461 1.80049V2.55049Z" fill="#929292" opacity="0.5"/>
</svg>