<svg xmlns="http://www.w3.org/2000/svg" width="14" height="14" viewBox="0 0 14 14" fill="none">
  <path fill-rule="evenodd" clip-rule="evenodd" d="M11.2677 13.7054C11.009 13.9641 10.5895 13.9641 10.3308 13.7054C10.072 13.4466 10.072 13.0272 10.3308 12.7685L10.8873 12.2119H3.67422C2.89412 12.2119 2.26172 11.5795 2.26172 10.7994V4.22572C1.45994 4.08896 0.849609 3.39076 0.849609 2.55V1.8C0.849609 0.861115 1.61073 0.1 2.54961 0.1H3.29961C4.23849 0.1 4.99961 0.861115 4.99961 1.8V2.55C4.99961 3.39103 4.38888 4.08942 3.58672 4.22586V10.7994C3.58672 10.8477 3.62589 10.8869 3.67422 10.8869H10.8873L10.3308 10.3304C10.072 10.0717 10.072 9.65218 10.3308 9.39346C10.5895 9.13473 11.009 9.13473 11.2677 9.39346L12.9552 11.081C13.2139 11.3397 13.2139 11.7592 12.9552 12.0179L11.2677 13.7054ZM2.26172 4.0224C2.23645 4.01749 2.2114 4.01194 2.1866 4.00578C2.2114 4.01193 2.23645 4.01746 2.26172 4.02236V4.0224ZM3.66059 0.343719C4.31426 0.505585 4.79883 1.09611 4.79883 1.7998V2.5498C4.79883 3.27976 4.27741 3.88794 3.58672 4.02221V4.02255C4.2778 3.8886 4.79961 3.28023 4.79961 2.55V1.8C4.79961 1.09602 4.31465 0.505307 3.66059 0.343719ZM2.45775 2.91367C2.29466 2.87298 2.17383 2.7255 2.17383 2.5498V1.7998C2.17383 1.5927 2.34172 1.4248 2.54883 1.4248H3.29883C3.33052 1.4248 3.36129 1.42874 3.39069 1.43614C3.36153 1.42886 3.33102 1.425 3.29961 1.425H2.54961C2.3425 1.425 2.17461 1.59289 2.17461 1.8V2.55C2.17461 2.72542 2.29505 2.8727 2.45775 2.91367ZM2.37461 2.55C2.37461 2.64665 2.45296 2.725 2.54961 2.725H3.29961C3.39626 2.725 3.47461 2.64665 3.47461 2.55V1.8C3.47461 1.70335 3.39626 1.625 3.29961 1.625H2.54961C2.45296 1.625 2.37461 1.70335 2.37461 1.8V2.55Z" fill="#929292"/>
</svg>