<svg width="40" height="47" viewBox="0 0 40 47" fill="none" xmlns="http://www.w3.org/2000/svg">
<path d="M19.8777 12.2834C21.0665 12.2834 22.0073 11.3422 22.0073 10.1538V2.12962C22.0073 0.940807 21.0661 0 19.8777 0C18.6889 0 17.748 0.941161 17.748 2.12962V10.104C17.748 11.2928 18.6889 12.2834 19.8777 12.2834V12.2834Z" fill="#6993FF"/>
<path d="M8.48592 12.7784C8.8328 13.6204 9.62502 14.1158 10.4669 14.1158C10.7641 14.1158 11.0118 14.0664 11.3089 13.9673C12.3986 13.5216 12.9434 12.2335 12.448 11.1439L9.37724 3.76381C8.93155 2.67414 7.6933 2.12931 6.55385 2.6247C5.46418 3.07039 4.91935 4.35843 5.41474 5.4481L8.48592 12.7784Z" fill="#6993FF"/>
<path d="M28.4472 13.9685C28.695 14.0677 28.9921 14.1171 29.2892 14.1171C30.1312 14.1171 30.9237 13.6216 31.2702 12.7797L34.341 5.39959C34.7867 4.30993 34.2916 3.07168 33.2019 2.5762C32.0632 2.18026 30.7751 2.72511 30.3294 3.81481L27.2586 11.1949C26.8126 12.2842 27.3575 13.5224 28.4472 13.9685L28.4472 13.9685Z" fill="#6993FF"/>
<path d="M39.8011 30.8036L33.9155 18.5711C33.5662 17.8284 32.8183 17.333 31.9704 17.333H8.03002C7.18218 17.333 6.43382 17.8284 6.08487 18.5711L0.199352 30.8036C0.0497514 31.1007 0 31.3978 0 31.7446V44.1257C0 45.3144 0.947729 46.2551 2.14448 46.2551H37.8555C39.0526 46.2551 40 45.314 40 44.1257V31.7446C40 31.4472 39.9503 31.1007 39.8007 30.8036H39.8011ZM9.42672 21.6416H30.6239L34.3148 29.318H5.68613L9.42672 21.6416Z" fill="#DFE8FF"/>
</svg>
