<svg width="20" height="20" viewBox="0 0 20 20" fill="none" xmlns="http://www.w3.org/2000/svg">
<rect x="19" y="1" width="18" height="18" rx="9" transform="rotate(90 19 1)" fill="white" stroke="#00B4ED" stroke-width="2"/>
<path d="M9.44423 12.5754L6.24423 9.37543C6.16782 9.30163 6.10688 9.21336 6.06495 9.11575C6.02302 9.01815 6.00095 8.91317 6.00003 8.80695C5.99911 8.70073 6.01935 8.59539 6.05957 8.49707C6.0998 8.39875 6.1592 8.30943 6.23431 8.23432C6.30943 8.1592 6.39875 8.0998 6.49707 8.05957C6.59538 8.01935 6.70073 7.99911 6.80695 8.00003C6.91318 8.00095 7.01815 8.02302 7.11575 8.06495C7.21336 8.10688 7.30163 8.16782 7.37543 8.24423L10.0098 10.8786L12.6442 8.24423C12.7951 8.0985 12.9972 8.01787 13.207 8.01969C13.4167 8.02151 13.6174 8.10565 13.7657 8.25398C13.914 8.4023 13.9981 8.60295 14 8.81271C14.0018 9.02247 13.9212 9.22455 13.7754 9.37543L10.5754 12.5754C10.4254 12.7254 10.222 12.8097 10.0098 12.8097C9.7977 12.8097 9.59425 12.7254 9.44423 12.5754Z" fill="#00B4ED"/>
</svg>
