<svg width="18" height="18" viewBox="0 0 18 18" fill="none" xmlns="http://www.w3.org/2000/svg">
<path d="M14.9999 1.00003H4.59997C4.06961 1.00057 3.56122 1.21137 3.18637 1.58639C2.81135 1.9614 2.60043 2.46979 2.59991 2.99999V13.8H1.39991C1.29384 13.8 1.19206 13.8421 1.11706 13.9171C1.04206 13.9921 0.999867 14.0938 1 14.2V15C1.00054 15.5302 1.21134 16.0386 1.58636 16.4136C1.96137 16.7886 2.46976 16.9994 2.99996 17H11.8001C12.3303 16.9994 12.8387 16.7886 13.2137 16.4136C13.5886 16.0386 13.7995 15.5302 13.8 15V4.19999H16.6001C16.7062 4.19999 16.8079 4.15793 16.8829 4.08293C16.9579 4.00793 17.0001 3.90615 17 3.79994V2.99999C16.9995 2.46976 16.7887 1.96137 16.4136 1.58639C16.0386 1.2114 15.5302 1.00058 15 1.00003H14.9999ZM2.99986 16.1999C2.68164 16.1995 2.37668 16.0731 2.1517 15.8481C1.92671 15.6231 1.80027 15.3181 1.79986 14.9999V14.5999H9.79975V14.9999C9.79921 15.4329 9.93997 15.8541 10.2006 16.1999H2.99986ZM13 2.99992V14.9999C13 15.4286 12.7712 15.8248 12.4 16.0392C12.0286 16.2535 11.5712 16.2535 11.2 16.0392C10.8286 15.8248 10.6 15.4286 10.6 14.9999V14.2C10.6 14.0938 10.5579 13.992 10.4828 13.917C10.4078 13.842 10.306 13.7999 10.1999 13.7999H3.40004V2.99992C3.40031 2.68171 3.52687 2.37674 3.75188 2.15176C3.97689 1.92677 4.28184 1.80033 4.60004 1.79992H13.4101C13.1456 2.14411 13.0015 2.56572 13 2.99992ZM16.1999 3.39996H13.7999V2.99992C13.7999 2.57121 14.0287 2.17504 14.3999 1.96065C14.7712 1.74636 15.2287 1.74636 15.5999 1.96065C15.9712 2.17507 16.1999 2.57124 16.1999 2.99992V3.39996Z" fill="#929292" stroke="#929292" stroke-width="0.5"/>
</svg>
