<svg width="24" height="24" viewBox="0 0 24 24" fill="none" xmlns="http://www.w3.org/2000/svg">
<path d="M17.9999 4H7.59997C7.06961 4.00054 6.56122 4.21134 6.18637 4.58636C5.81135 4.96137 5.60043 5.46976 5.59991 5.99996V16.8H4.39991C4.29384 16.8 4.19206 16.842 4.11706 16.917C4.04206 16.992 3.99987 17.0938 4 17.2V18C4.00054 18.5302 4.21134 19.0386 4.58636 19.4136C4.96137 19.7886 5.46976 19.9994 5.99996 19.9999H14.8001C15.3303 19.9994 15.8387 19.7886 16.2137 19.4136C16.5886 19.0386 16.7995 18.5302 16.8 18V7.19996H19.6001C19.7062 7.19996 19.8079 7.1579 19.8829 7.0829C19.9579 7.0079 20.0001 6.90612 20 6.79991V5.99996C19.9995 5.46973 19.7887 4.96134 19.4136 4.58636C19.0386 4.21137 18.5302 4.00055 18 4H17.9999ZM5.99986 19.1999C5.68164 19.1995 5.37668 19.0731 5.1517 18.8481C4.92671 18.6231 4.80027 18.3181 4.79986 17.9999V17.5999H12.7998V17.9999C12.7992 18.4329 12.94 18.8541 13.2006 19.1999H5.99986ZM16 5.99989V17.9999C16 18.4286 15.7712 18.8248 15.4 19.0392C15.0286 19.2535 14.5712 19.2535 14.2 19.0392C13.8286 18.8248 13.6 18.4286 13.6 17.9999V17.1999C13.6 17.0937 13.5579 16.992 13.4828 16.917C13.4078 16.842 13.306 16.7999 13.1999 16.7999H6.40004V5.99989C6.40031 5.68168 6.52687 5.37671 6.75188 5.15173C6.97689 4.92674 7.28184 4.8003 7.60004 4.79989H16.4101C16.1456 5.14408 16.0015 5.56569 16 5.99989ZM19.1999 6.39993H16.7999V5.99989C16.7999 5.57118 17.0287 5.17501 17.3999 4.96062C17.7712 4.74633 18.2287 4.74633 18.5999 4.96062C18.9712 5.17504 19.1999 5.57121 19.1999 5.99989V6.39993Z" fill="#636364" stroke="#636364" stroke-width="0.5"/>
<path d="M13.9998 7.80005H8.39992C8.17908 7.80005 7.99988 7.97911 7.99988 8.19996C7.99988 8.42094 8.17908 8.6 8.39992 8.6H13.9998C14.2208 8.6 14.3999 8.42094 14.3999 8.19996C14.3999 7.97911 14.2208 7.80005 13.9998 7.80005Z" fill="#636364" stroke="#636364" stroke-width="0.4"/>
<path d="M11.9998 10.2H8.39992C8.17908 10.2 7.99988 10.379 7.99988 10.5999C7.99988 10.8208 8.17908 10.9999 8.39992 10.9999H11.9998C12.2208 10.9999 12.3999 10.8208 12.3999 10.5999C12.3999 10.379 12.2208 10.2 11.9998 10.2Z" fill="#636364" stroke="#636364" stroke-width="0.4"/>
</svg>
