<svg width="32" height="32" viewBox="0 0 32 32" fill="none" xmlns="http://www.w3.org/2000/svg">
<path d="M0 6.4C0 2.86538 2.86538 0 6.4 0H25.6C29.1346 0 32 2.86538 32 6.4V25.6C32 29.1346 29.1346 32 25.6 32H6.4C2.86538 32 0 29.1346 0 25.6V6.4Z" fill="black"/>
<rect x="5.60059" y="20.3079" width="20.8" height="8.53333" rx="4.26667" transform="rotate(-45 5.60059 20.3079)" fill="#81A4FF"/>
<path d="M14.6516 17.2909C16.3178 18.9571 16.3178 21.6586 14.6516 23.3249C12.9853 24.9911 10.2838 24.9911 8.61757 23.3249C6.95134 21.6586 6.95134 18.9571 8.61757 17.2909C10.2838 15.6246 12.9853 15.6246 14.6516 17.2909Z" fill="white"/>
<path d="M23.3254 8.61704C24.9916 10.2833 24.9916 12.9848 23.3254 14.651C21.6591 16.3173 18.9576 16.3173 17.2914 14.651C15.6252 12.9848 15.6252 10.2833 17.2914 8.61704C18.9576 6.95081 21.6591 6.95081 23.3254 8.61704Z" fill="#4478FF"/>
</svg>
