<svg width="16" height="16" viewBox="0 0 16 16" fill="none" xmlns="http://www.w3.org/2000/svg">
<path d="M10.6666 2.66669H12C12.3536 2.66669 12.6926 2.80716 12.9427 3.05721C13.1927 3.30726 13.3333 3.6464 13.3333 4.00002V13.3334C13.3333 13.687 13.1927 14.0261 12.9427 14.2762C12.6926 14.5262 12.3536 14.6667 12 14.6667H3.99996C3.64634 14.6667 3.30714 14.5262 3.05709 14.2762C2.80704 14.0261 2.66663 13.687 2.66663 13.3334V4.00002C2.66663 3.6464 2.80704 3.30726 3.05709 3.05721C3.30714 2.80716 3.64634 2.66669 3.99996 2.66669H5.33329" stroke="#4478FF" stroke-width="1.2" stroke-miterlimit="10"/>
<path d="M6.66671 4.00001C6.31309 4.00001 5.97388 3.85954 5.72384 3.60949C5.47379 3.35944 5.33337 3.0203 5.33337 2.66668C5.33337 2.31305 5.47379 1.97392 5.72384 1.72387C5.97388 1.47382 6.31309 1.33334 6.66671 1.33334H9.33337C9.687 1.33334 10.026 1.47382 10.2761 1.72387C10.5261 1.97392 10.6667 2.31305 10.6667 2.66668C10.6667 3.0203 10.5261 3.35944 10.2761 3.60949C10.026 3.85954 9.687 4.00001 9.33337 4.00001H6.66671Z" stroke="#4478FF" stroke-width="1.2" stroke-miterlimit="10"/>
</svg>
