<svg width="24" height="24" viewBox="0 0 24 24" fill="none" xmlns="http://www.w3.org/2000/svg">
<path fill-rule="evenodd" clip-rule="evenodd" d="M11.9582 6C8.44969 6 5.4279 8.17473 4.04046 11.3086C3.98651 11.4304 3.98651 11.5696 4.04046 11.6914C5.4279 14.8253 8.44969 17 11.9582 17C15.4668 17 18.4886 14.8253 19.876 11.6914C19.93 11.5696 19.93 11.4304 19.876 11.3086C18.4886 8.17473 15.4668 6 11.9582 6ZM9 11.5C9 9.84315 10.3431 8.5 12 8.5C13.6569 8.5 15 9.84315 15 11.5C15 13.1569 13.6569 14.5 12 14.5C10.3431 14.5 9 13.1569 9 11.5Z" fill="#929292"/>
</svg>
