<svg xmlns="http://www.w3.org/2000/svg" width="14" height="16" viewBox="0 0 14 16" fill="none">
  <path d="M10.5049 15.2501C10.0949 15.2501 9.75488 14.9101 9.75488 14.5001V10.6001C9.75488 10.1901 10.0949 9.8501 10.5049 9.8501C10.9149 9.8501 11.2549 10.1901 11.2549 10.6001V14.5001C11.2549 14.9101 10.9149 15.2501 10.5049 15.2501Z" fill="#F7F7FA"/>
  <path d="M10.5049 4.2C10.0949 4.2 9.75488 3.86 9.75488 3.45V1.5C9.75488 1.09 10.0949 0.75 10.5049 0.75C10.9149 0.75 11.2549 1.09 11.2549 1.5V3.45C11.2549 3.86 10.9149 4.2 10.5049 4.2Z" fill="#F7F7FA"/>
  <path d="M3.34473 15.25C2.93473 15.25 2.59473 14.91 2.59473 14.5V12.55C2.59473 12.14 2.93473 11.8 3.34473 11.8C3.75473 11.8 4.09473 12.14 4.09473 12.55V14.5C4.09473 14.91 3.76473 15.25 3.34473 15.25Z" fill="#F7F7FA"/>
  <path d="M3.34473 6.15C2.93473 6.15 2.59473 5.81 2.59473 5.4V1.5C2.59473 1.09 2.93473 0.75 3.34473 0.75C3.75473 0.75 4.09473 1.09 4.09473 1.5V5.4C4.09473 5.81 3.76473 6.15 3.34473 6.15Z" fill="#F7F7FA"/>
  <path d="M10.6548 3C9.1548 3 7.9248 4.22 7.9248 5.72C7.9248 7.22 9.1448 8.45 10.6548 8.45C12.1548 8.45 13.3748 7.23 13.3748 5.72C13.3748 4.21 12.1548 3 10.6548 3Z" fill="#F7F7FA"/>
  <path d="M3.345 7.22998C1.845 7.22998 0.625 8.44998 0.625 9.95998C0.625 11.47 1.845 12.68 3.345 12.68C4.845 12.68 6.075 11.46 6.075 9.95998C6.075 8.45998 4.855 7.22998 3.345 7.22998Z" fill="#F7F7FA"/>
</svg>