<svg width="30" height="30" viewBox="0 0 30 30" fill="none" xmlns="http://www.w3.org/2000/svg">
<rect x="6.7" y="10.7" width="16.6" height="7.6" rx="3.8" stroke="#636364" stroke-width="1.4"/>
<path d="M3.38348 16.7684C3.27761 16.7684 3.17174 16.7294 3.08816 16.6458L1.12119 14.6788C0.959602 14.5172 0.959602 14.2498 1.12119 14.0882L3.08816 12.1212C3.24975 11.9596 3.51721 11.9596 3.67881 12.1212C3.8404 12.2828 3.8404 12.5502 3.67881 12.7118L2.00716 14.3835L3.67881 16.0551C3.8404 16.2167 3.8404 16.4842 3.67881 16.6458C3.6008 16.7294 3.49493 16.7684 3.38348 16.7684Z" fill="#929292"/>
<path d="M26.6165 16.7684C26.7224 16.7684 26.8283 16.7294 26.9118 16.6458L28.8788 14.6788C29.0404 14.5172 29.0404 14.2498 28.8788 14.0882L26.9118 12.1212C26.7502 11.9596 26.4828 11.9596 26.3212 12.1212C26.1596 12.2828 26.1596 12.5502 26.3212 12.7118L27.9928 14.3835L26.3212 16.0551C26.1596 16.2167 26.1596 16.4842 26.3212 16.6458C26.3992 16.7294 26.5051 16.7684 26.6165 16.7684Z" fill="#929292"/>
</svg>
