<svg width="24" height="24" viewBox="0 0 24 24" fill="none" xmlns="http://www.w3.org/2000/svg">
<path d="M2.46684 13.9075C2.38215 13.9075 2.29745 13.8763 2.23059 13.8094L0.657014 12.2358C0.52774 12.1065 0.52774 11.8926 0.657014 11.7633L2.23059 10.1897C2.35986 10.0605 2.57383 10.0605 2.7031 10.1897C2.83238 10.319 2.83238 10.533 2.7031 10.6622L1.36579 11.9996L2.7031 13.3369C2.83238 13.4661 2.83238 13.6801 2.7031 13.8094C2.64069 13.8763 2.556 13.9075 2.46684 13.9075Z" fill="#929292"/>
<rect x="5.50005" y="9.0999" width="13" height="5.8" rx="2.9" stroke="#929292" stroke-width="1.4"/>
<path d="M21.5332 13.9075C21.6179 13.9075 21.7025 13.8763 21.7694 13.8094L23.343 12.2358C23.4723 12.1065 23.4723 11.8926 23.343 11.7633L21.7694 10.1897C21.6401 10.0605 21.4262 10.0605 21.2969 10.1897C21.1676 10.319 21.1676 10.533 21.2969 10.6622L22.6342 11.9996L21.2969 13.3369C21.1676 13.4661 21.1676 13.6801 21.2969 13.8094C21.3593 13.8763 21.444 13.9075 21.5332 13.9075Z" fill="#929292"/>
</svg>
