<svg width="24" height="24" viewBox="0 0 24 24" fill="none" xmlns="http://www.w3.org/2000/svg">
<path d="M0.693359 11.2891V12.6973C1.77344 12.6973 2.14941 13.1143 2.14258 14.1465V15.5273C2.14941 17.5234 3.03809 18.166 4.94531 18.166V17.0039C3.81738 17.0039 3.5166 16.5186 3.50977 15.459V13.6953C3.5166 12.9365 3.24316 12.3213 2.0332 12.082V11.918C3.24316 11.6719 3.5166 11.0566 3.50977 10.291V8.54102C3.5166 7.47461 3.81738 6.98926 4.94531 6.99609V5.83398C3.03809 5.83398 2.14941 6.47656 2.14258 8.47266V9.85352C2.14941 10.8721 1.78711 11.2822 0.748047 11.2891H0.693359Z" fill="#636364"/>
<path d="M5.69727 11.2891V12.6973C6.77734 12.6973 7.15332 13.1143 7.14648 14.1465V15.5273C7.15332 17.5234 8.04199 18.166 9.94922 18.166V17.0039C8.82129 17.0039 8.52051 16.5186 8.51367 15.459V13.6953C8.52051 12.9365 8.24707 12.3213 7.03711 12.082V11.918C8.24707 11.6719 8.52051 11.0566 8.51367 10.291V8.54102C8.52051 7.47461 8.82129 6.98926 9.94922 6.99609V5.83398C8.04199 5.83398 7.15332 6.47656 7.14648 8.47266V9.85352C7.15332 10.8721 6.79102 11.2822 5.75195 11.2891H5.69727Z" fill="#636364"/>
<path d="M18.3027 12.7109V11.3027C17.2227 11.3027 16.8467 10.8857 16.8535 9.85352V8.47266C16.8467 6.47656 15.958 5.83398 14.0508 5.83398V6.99609C15.1787 6.99609 15.4795 7.48145 15.4863 8.54102V10.3047C15.4795 11.0635 15.7529 11.6787 16.9629 11.918V12.082C15.7529 12.3281 15.4795 12.9434 15.4863 13.709V15.459C15.4795 16.5254 15.1787 17.0107 14.0508 17.0039V18.166C15.958 18.166 16.8467 17.5234 16.8535 15.5273V14.1465C16.8467 13.1279 17.209 12.7178 18.248 12.7109H18.3027Z" fill="#636364"/>
<path d="M23.3066 12.7109V11.3027C22.2266 11.3027 21.8506 10.8857 21.8574 9.85352V8.47266C21.8506 6.47656 20.9619 5.83398 19.0547 5.83398V6.99609C20.1826 6.99609 20.4834 7.48145 20.4902 8.54102V10.3047C20.4834 11.0635 20.7568 11.6787 21.9668 11.918V12.082C20.7568 12.3281 20.4834 12.9434 20.4902 13.709V15.459C20.4834 16.5254 20.1826 17.0107 19.0547 17.0039V18.166C20.9619 18.166 21.8506 17.5234 21.8574 15.5273V14.1465C21.8506 13.1279 22.2129 12.7178 23.252 12.7109H23.3066Z" fill="#636364"/>
</svg>
