<svg xmlns="http://www.w3.org/2000/svg" width="22" height="22" viewBox="0 0 22 22" fill="none">
  <path d="M1.25 2.6875V20.6875H6.25V2.6875C6.25 1.5875 5.75 0.6875 4.25 0.6875H3.25C1.75 0.6875 1.25 1.5875 1.25 2.6875Z" fill="#4478FF"/>
  <path d="M8.25 8.8125V20.8125H13.25V8.8125C13.25 7.7125 12.75 6.8125 11.25 6.8125H10.25C8.75 6.8125 8.25 7.7125 8.25 8.8125Z" fill="#4478FF"/>
  <path d="M15.25 13.8125V20.8125H20.25V13.8125C20.25 12.7125 19.75 11.8125 18.25 11.8125H17.25C15.75 11.8125 15.25 12.7125 15.25 13.8125Z" fill="#6993FF"/>
  <path d="M21 21.3125H1C0.59 21.3125 0.25 20.9725 0.25 20.5625C0.25 20.1525 0.59 19.8125 1 19.8125H21C21.41 19.8125 21.75 20.1525 21.75 20.5625C21.75 20.9725 21.41 21.3125 21 21.3125Z" fill="#6993FF"/>
</svg>