<svg width="24" height="24" viewBox="0 0 24 24" fill="none" xmlns="http://www.w3.org/2000/svg">
<path fill-rule="evenodd" clip-rule="evenodd" d="M14.6347 2.34724C14.5927 1.92701 14.5717 1.7169 14.489 1.55195C14.377 1.32848 14.1854 1.15505 13.9519 1.06585C13.7795 1 13.5684 1 13.146 1H11.7869C11.0464 1 10.6761 1 10.4114 1.19523C10.3577 1.23486 10.3081 1.27977 10.2633 1.32929C10.0427 1.57323 10.0058 1.94165 9.93215 2.67849L9.9064 2.93602C9.78938 4.10618 9.73087 4.69126 9.41272 4.95337C9.25907 5.07996 9.07114 5.1578 8.87298 5.17694C8.46266 5.21657 8.00758 4.84422 7.09741 4.09954C6.61785 3.70717 6.37806 3.51099 6.10803 3.46952C5.97435 3.449 5.83789 3.45581 5.70691 3.48953C5.44235 3.55766 5.22328 3.77673 4.78514 4.21486L3.79903 5.20097C3.43985 5.56015 3.26026 5.73974 3.18449 5.94917C3.11657 6.13693 3.1064 6.34072 3.15531 6.5343C3.20986 6.75023 3.37069 6.9468 3.69235 7.33994C4.30175 8.08477 4.60645 8.45718 4.62082 8.78969C4.63356 9.08468 4.51528 9.37022 4.29768 9.5698C4.05241 9.79476 3.57362 9.84264 2.61603 9.9384L2.49554 9.95045C1.93438 10.0066 1.6538 10.0346 1.4472 10.1717C1.30786 10.2641 1.19393 10.39 1.11582 10.5378C1 10.7571 1 11.039 1 11.603V13.1768C1 13.57 1 13.7666 1.05723 13.9285C1.14634 14.1804 1.33258 14.3862 1.5744 14.4999C1.72971 14.573 1.92537 14.5925 2.31668 14.6317C3.05703 14.7057 3.4272 14.7427 3.63753 14.886C3.96635 15.1101 4.13107 15.5077 4.05697 15.8987C4.00958 16.1487 3.774 16.4366 3.30285 17.0125L3.13896 17.2128C2.81448 17.6094 2.65225 17.8077 2.59803 18.0257C2.55049 18.217 2.56052 18.418 2.62686 18.6036C2.7025 18.8152 2.88366 18.9964 3.24599 19.3587L4.05988 20.1726C4.6613 20.774 4.96202 21.0747 5.34209 21.0967C5.34743 21.097 5.35278 21.0973 5.35813 21.0975C5.73851 21.1134 6.06765 20.8441 6.72593 20.3055L6.95541 20.1178C8.00148 19.2619 8.52451 18.834 8.99408 18.9338C9.11395 18.9592 9.22811 19.0065 9.33088 19.0733C9.73348 19.3348 9.80072 20.0072 9.93521 21.3521C10.0059 22.0594 10.0413 22.4131 10.2468 22.652C10.3012 22.7153 10.3633 22.7715 10.4317 22.8193C10.6899 23 11.0453 23 11.7562 23H13.1768C13.57 23 13.7666 23 13.9285 22.9428C14.1804 22.8537 14.3862 22.6674 14.4999 22.4256C14.573 22.2703 14.5925 22.0746 14.6317 21.6833C14.7057 20.943 14.7427 20.5728 14.886 20.3625C15.1101 20.0337 15.5077 19.8689 15.8987 19.943C16.1487 19.9904 16.4366 20.226 17.0125 20.6972L17.2128 20.861C17.6094 21.1855 17.8077 21.3478 18.0257 21.402C18.217 21.4495 18.418 21.4395 18.6036 21.3731C18.8152 21.2975 18.9964 21.1163 19.3587 20.754L20.3382 19.7745C20.7795 19.3332 21.0001 19.1126 21.0678 18.8458C21.1004 18.7171 21.107 18.5833 21.0874 18.4521C21.0467 18.1799 20.8491 17.9384 20.4538 17.4553L20.3772 17.3616C19.6953 16.5282 19.3543 16.1114 19.3662 15.7366C19.374 15.4935 19.47 15.2615 19.6365 15.0841C19.8931 14.8107 20.4288 14.7571 21.5004 14.65C22.0654 14.5935 22.348 14.5652 22.5556 14.4265C22.6927 14.3348 22.8051 14.2107 22.8826 14.0651C23 13.8447 23 13.5608 23 12.9929V11.7869C23 11.0464 23 10.6761 22.8048 10.4114C22.7651 10.3577 22.7202 10.3081 22.6707 10.2633C22.4268 10.0427 22.0583 10.0058 21.3215 9.93215L21.064 9.9064C19.8938 9.78938 19.3087 9.73087 19.0466 9.41272C18.92 9.25907 18.8422 9.07114 18.8231 8.87298C18.7834 8.46266 19.1558 8.00758 19.9005 7.09741C20.2928 6.61785 20.489 6.37807 20.5305 6.10803C20.551 5.97435 20.5442 5.83789 20.5105 5.70691C20.4423 5.44234 20.2233 5.22327 19.7851 4.78514L18.6334 3.63343C18.4309 3.4309 18.3296 3.32963 18.2226 3.26584C17.9377 3.09603 17.5871 3.07854 17.2867 3.21916C17.1738 3.27199 17.063 3.36267 16.8413 3.54405C16.4223 3.88688 16.2128 4.05829 16.0385 4.11649C15.5661 4.27421 15.0496 4.06029 14.8271 3.61474C14.745 3.45033 14.7181 3.18097 14.6642 2.64227L14.6347 2.34724Z" fill="#4478FF"/>
<circle cx="12.1" cy="12.1" r="3.6" fill="white"/>
</svg>
