<svg width="12" height="12" viewBox="0 0 12 12" fill="none" xmlns="http://www.w3.org/2000/svg">
<path d="M5.2946 8.49985L7.4146 6.35485C7.46146 6.30837 7.49866 6.25307 7.52405 6.19214C7.54943 6.13121 7.5625 6.06586 7.5625 5.99985C7.5625 5.93385 7.54943 5.86849 7.52405 5.80756C7.49866 5.74663 7.46146 5.69133 7.4146 5.64485L5.2946 3.52485C5.24812 3.47799 5.19282 3.44079 5.13189 3.41541C5.07096 3.39002 5.00561 3.37695 4.9396 3.37695C4.8736 3.37695 4.80824 3.39002 4.74731 3.41541C4.68638 3.44079 4.63108 3.47799 4.5846 3.52485C4.49148 3.61853 4.4392 3.74526 4.4392 3.87735C4.4392 4.00944 4.49148 4.13617 4.5846 4.22985L6.3546 5.99985L4.5846 7.76985C4.49223 7.86298 4.44015 7.98868 4.4396 8.11985C4.43922 8.18565 4.45183 8.25089 4.47671 8.3118C4.5016 8.37272 4.53826 8.42813 4.5846 8.47485C4.62941 8.52339 4.68339 8.56257 4.74343 8.59012C4.80347 8.61767 4.86837 8.63306 4.93439 8.63538C5.00041 8.63771 5.06623 8.62692 5.12806 8.60366C5.18988 8.5804 5.24649 8.54512 5.2946 8.49985Z" fill="white"/>
</svg>
