<svg width="20" height="20" viewBox="0 0 20 20" fill="none" xmlns="http://www.w3.org/2000/svg">
<path d="M15.7436 3C16.9898 3 18 4.00061 18 5.23492V14.9873C18 16.2216 16.9898 17.2222 15.7436 17.2222C14.4974 17.2222 13.4872 16.2216 13.4872 14.9873V5.23492C13.4872 4.00061 14.4974 3 15.7436 3Z" fill="#DFE8FF"/>
<path d="M10 6.25079C11.2462 6.25079 12.2564 7.2514 12.2564 8.48571V14.9873C12.2564 16.2216 11.2462 17.2222 10 17.2222C8.75382 17.2222 7.74359 16.2216 7.74359 14.9873V8.48571C7.74359 7.2514 8.75382 6.25079 10 6.25079Z" fill="#DFE8FF"/>
<path d="M4.25641 9.50159C5.50259 9.50159 6.51282 10.5022 6.51282 11.7365V14.9873C6.51282 16.2216 5.50259 17.2222 4.25641 17.2222C3.01023 17.2222 2 16.2216 2 14.9873V11.7365C2 10.5022 3.01023 9.50159 4.25641 9.50159Z" fill="#4478FF"/>
</svg>
