<svg width="24" height="24" viewBox="0 0 24 24" fill="none" xmlns="http://www.w3.org/2000/svg">
<path fill-rule="evenodd" clip-rule="evenodd" d="M14.3498 2.49761C14.2934 1.93447 14.2653 1.6529 14.1274 1.44578C14.0354 1.30756 13.9103 1.19443 13.7637 1.11661C13.5438 1 13.2609 1 12.6949 1H11.305C10.7391 1 10.4562 1 10.2364 1.11656C10.0897 1.1944 9.96461 1.30758 9.87256 1.44587C9.7347 1.65296 9.70655 1.93447 9.65025 2.49748C9.54349 3.56508 9.49011 4.09888 9.21839 4.35517C9.04014 4.52329 8.80638 4.62012 8.56146 4.62728C8.1881 4.63819 7.77283 4.29843 6.94229 3.6189C6.50416 3.26042 6.28509 3.08118 6.04109 3.03225C5.87831 2.9996 5.70996 3.008 5.55123 3.05668C5.31332 3.12965 5.1132 3.32977 4.71297 3.73L3.73038 4.71259C3.33007 5.11289 3.12992 5.31305 3.05696 5.55101C3.00831 5.70969 2.99992 5.87798 3.03254 6.0407C3.08146 6.28475 3.26072 6.50385 3.61924 6.94204C4.29893 7.77277 4.63877 8.18813 4.62778 8.5616C4.62058 8.80638 4.52381 9.04001 4.35581 9.21819C4.0995 9.49005 3.56555 9.54344 2.49765 9.65023C1.93447 9.70655 1.65289 9.73471 1.44576 9.87263C1.30756 9.96465 1.19444 10.0896 1.11663 10.2363C1 10.4561 1 10.7391 1 11.3051V12.6949C1 13.2609 1 13.5438 1.11661 13.7637C1.19443 13.9103 1.30756 14.0354 1.44578 14.1274C1.6529 14.2653 1.93448 14.2934 2.49764 14.3498C3.56545 14.4565 4.09936 14.5099 4.35566 14.7817C4.52371 14.9599 4.6205 15.1936 4.62769 15.4385C4.63865 15.8119 4.29888 16.2272 3.61935 17.0577C3.26099 17.4957 3.0818 17.7147 3.03286 17.9587C3.00019 18.1215 3.00859 18.2899 3.0573 18.4487C3.13028 18.6865 3.33036 18.8866 3.73053 19.2868L4.71335 20.2696C5.1135 20.6697 5.31357 20.8698 5.55142 20.9428C5.71021 20.9915 5.87864 20.9999 6.04149 20.9672C6.28542 20.9183 6.50441 20.7391 6.94238 20.3808C7.77286 19.7013 8.18811 19.3616 8.56151 19.3725C8.80638 19.3797 9.04009 19.4765 9.21831 19.6446C9.49009 19.9009 9.54347 20.4347 9.65024 21.5024C9.70655 22.0655 9.73471 22.3471 9.87259 22.5542C9.96463 22.6924 10.0897 22.8056 10.2364 22.8834C10.4562 23 10.7391 23 11.305 23H12.6948C13.2609 23 13.5439 23 13.7637 22.8834C13.9104 22.8055 14.0353 22.6924 14.1274 22.5543C14.2653 22.3471 14.2935 22.0655 14.3498 21.5022C14.4566 20.4344 14.51 19.9005 14.7817 19.6442C14.9599 19.4761 15.1937 19.3793 15.4386 19.3721C15.812 19.3612 16.2272 19.7009 17.0576 20.3803C17.4955 20.7386 17.7145 20.9178 17.9584 20.9667C18.1213 20.9994 18.2897 20.991 18.4485 20.9423C18.6864 20.8693 18.8864 20.6693 19.2865 20.2691L20.2695 19.2861C20.6696 18.8861 20.8696 18.6861 20.9426 18.4483C20.9913 18.2894 20.9997 18.1209 20.967 17.958C20.9181 17.7141 20.7389 17.4952 20.3807 17.0574C19.7014 16.2271 19.3617 15.812 19.3726 15.4387C19.3797 15.1937 19.4766 14.9598 19.6448 14.7815C19.9011 14.5099 20.4348 14.4565 21.5024 14.3498C22.0655 14.2934 22.3471 14.2653 22.5542 14.1274C22.6924 14.0354 22.8056 13.9103 22.8834 13.7636C23 13.5438 23 13.2609 23 12.695V11.305C23 10.7391 23 10.4562 22.8834 10.2364C22.8056 10.0897 22.6924 9.96463 22.5542 9.87259C22.3471 9.73471 22.0655 9.70655 21.5024 9.65024C20.4347 9.54347 19.9009 9.49009 19.6446 9.21831C19.4765 9.04009 19.3797 8.80638 19.3725 8.56152C19.3616 8.18811 19.7013 7.77285 20.3808 6.94233C20.7392 6.50432 20.9184 6.28531 20.9673 6.04136C21 5.87853 20.9916 5.71013 20.9429 5.55136C20.8699 5.31348 20.6698 5.1134 20.2697 4.71323L19.2869 3.73046C18.8867 3.33026 18.6866 3.13017 18.4487 3.05719C18.29 3.0085 18.1216 3.0001 17.9588 3.03276C17.7148 3.0817 17.4958 3.26089 17.0578 3.61928C16.2272 4.29886 15.8119 4.63864 15.4384 4.62767C15.1936 4.62047 14.96 4.52369 14.7818 4.35567C14.5099 4.09936 14.4565 3.56544 14.3498 2.49761Z" fill="#DCDCDC"/>
<circle cx="12.0004" cy="11.9999" r="3.6" fill="#8B8B8B"/>
</svg>
