<svg width="32" height="32" viewBox="0 0 32 32" fill="none" xmlns="http://www.w3.org/2000/svg">
<rect x="0.5" y="0.5" width="31" height="31" rx="3.5" fill="white"/>
<path d="M14.5036 17.5821C14.3356 17.5821 14.167 17.521 14.034 17.3977L11.2305 14.7976C11.0885 14.6657 11.008 14.4803 11.0094 14.2863C11.0108 14.0923 11.0934 13.908 11.2374 13.7781L14.1177 11.178C14.401 10.9223 14.838 10.9447 15.0936 11.228C15.3493 11.5113 15.3269 11.9483 15.0436 12.2039L12.7237 14.298L14.9734 16.3846C15.2531 16.6441 15.2697 17.0814 15.0101 17.361C14.8741 17.5077 14.6889 17.582 14.5035 17.582L14.5036 17.5821Z" fill="#636364"/>
<path d="M17.3417 20.9281H11.6909C11.3093 20.9281 11 20.6188 11 20.2371C11 19.8554 11.3092 19.5462 11.6909 19.5462H17.3417C18.597 19.5462 19.6182 18.525 19.6182 17.2697C19.6182 16.0144 18.597 14.9932 17.3417 14.9932L11.6909 14.9933C11.3093 14.9933 11 14.684 11 14.3023C11 13.9206 11.3092 13.6114 11.6909 13.6114H17.3417C19.3589 13.6114 21 15.2525 21 17.2697C21 19.2869 19.3589 20.9281 17.3417 20.9281V20.9281Z" fill="#636364"/>
<rect x="0.5" y="0.5" width="31" height="31" rx="3.5" stroke="#DCDCDC"/>
</svg>
