<svg width="32" height="32" viewBox="0 0 32 32" fill="none" xmlns="http://www.w3.org/2000/svg">
<rect x="0.5" y="0.5" width="31" height="31" rx="3.5" fill="white"/>
<path d="M17.4964 17.5821C17.6644 17.5821 17.833 17.521 17.966 17.3977L20.7695 14.7976C20.9115 14.6657 20.992 14.4803 20.9906 14.2863C20.9892 14.0923 20.9066 13.908 20.7626 13.7781L17.8823 11.178C17.599 10.9223 17.162 10.9447 16.9064 11.228C16.6507 11.5113 16.6731 11.9483 16.9564 12.2039L19.2763 14.298L17.0266 16.3846C16.7469 16.6441 16.7303 17.0814 16.9899 17.361C17.1259 17.5077 17.3111 17.582 17.4965 17.582L17.4964 17.5821Z" fill="#636364"/>
<path d="M14.6583 20.9281H20.3091C20.6907 20.9281 21 20.6188 21 20.2371C21 19.8554 20.6908 19.5462 20.3091 19.5462H14.6583C13.403 19.5462 12.3818 18.525 12.3818 17.2697C12.3818 16.0144 13.403 14.9932 14.6583 14.9932L20.3091 14.9933C20.6907 14.9933 21 14.684 21 14.3023C21 13.9206 20.6908 13.6114 20.3091 13.6114H14.6583C12.6411 13.6114 11 15.2525 11 17.2697C11 19.2869 12.6411 20.9281 14.6583 20.9281V20.9281Z" fill="#636364"/>
<rect x="0.5" y="0.5" width="31" height="31" rx="3.5" stroke="#DCDCDC"/>
</svg>
