<svg width="20" height="20" viewBox="0 0 20 20" fill="none" xmlns="http://www.w3.org/2000/svg">
<path fill-rule="evenodd" clip-rule="evenodd" d="M12.1361 1.36144C12.0928 0.927766 12.0711 0.710929 11.9838 0.541611C11.8728 0.326558 11.6877 0.159016 11.4627 0.0700478C11.2855 0 11.0676 0 10.6318 0H9.3681C8.93238 0 8.71453 0 8.53741 0.0700092C8.31231 0.158981 8.12712 0.326575 8.01619 0.541704C7.9289 0.710983 7.90722 0.927757 7.86387 1.36131C7.78181 2.18195 7.74077 2.59227 7.56907 2.81742C7.35113 3.10319 6.99661 3.25003 6.64044 3.20207C6.35982 3.16427 6.04061 2.9031 5.4022 2.38076C5.06481 2.10472 4.89612 1.9667 4.71463 1.90872C4.48414 1.8351 4.23478 1.84753 4.01277 1.94373C3.83795 2.01947 3.68385 2.17357 3.37565 2.48177L2.48233 3.37509C2.17403 3.68339 2.01988 3.83754 1.94413 4.01243C1.848 4.23438 1.83557 4.48364 1.90914 4.71405C1.96711 4.89561 2.10516 5.06435 2.38128 5.40182C2.90385 6.04052 3.16514 6.35987 3.20287 6.64066C3.2507 6.99664 3.10395 7.35092 2.81842 7.56881C2.59319 7.74068 2.18264 7.78173 1.36155 7.86384C0.92777 7.90722 0.710878 7.92891 0.541523 8.01628C0.326541 8.12719 0.15905 8.31226 0.0700841 8.53721C0 8.71442 0 8.9324 0 9.36835V10.6318C0 11.0676 0 11.2855 0.0700471 11.4627C0.159016 11.6877 0.326558 11.8728 0.541612 11.9838C0.71093 12.0711 0.927764 12.0928 1.36143 12.1361C2.1823 12.2182 2.59273 12.2593 2.81792 12.4311C3.10357 12.649 3.25037 13.0034 3.20247 13.3594C3.16471 13.6402 2.90351 13.9594 2.3811 14.5979C2.10511 14.9352 1.96711 15.1039 1.90913 15.2854C1.8355 15.5159 1.84794 15.7652 1.94414 15.9873C2.01988 16.1621 2.17398 16.3162 2.48217 16.6243L3.37561 17.5178C3.6838 17.826 3.8379 17.9801 4.01272 18.0558C4.23474 18.152 4.4841 18.1645 4.71458 18.0908C4.89607 18.0329 5.06474 17.8949 5.40208 17.6189C6.04059 17.0964 6.35985 16.8352 6.64057 16.7975C6.99663 16.7496 7.35101 16.8964 7.56892 17.182C7.74072 17.4072 7.78176 17.8176 7.86385 18.6385C7.90722 19.0722 7.92891 19.2891 8.01624 19.4584C8.12716 19.6734 8.31228 19.841 8.53729 19.9299C8.71447 20 8.93239 20 9.36824 20H10.6316C11.0676 20 11.2856 20 11.4628 19.9299C11.6877 19.8409 11.8728 19.6735 11.9837 19.4585C12.0711 19.2891 12.0928 19.0722 12.1362 18.6383C12.2183 17.8173 12.2593 17.4068 12.4311 17.1816C12.649 16.896 13.0034 16.7492 13.3595 16.7971C13.6402 16.8348 13.9594 17.096 14.5979 17.6184C14.9352 17.8944 15.1039 18.0324 15.2854 18.0904C15.5159 18.164 15.7652 18.1516 15.9873 18.0554C16.1621 17.9796 16.3162 17.8255 16.6243 17.5174L17.5179 16.6238C17.826 16.3157 17.98 16.1617 18.0558 15.9869C18.152 15.7648 18.1645 15.5154 18.0908 15.2848C18.0328 15.1034 17.8949 14.9348 17.619 14.5976C17.0968 13.9593 16.8357 13.6402 16.7979 13.3596C16.7499 13.0034 16.8967 12.6489 17.1825 12.4309C17.4077 12.2592 17.818 12.2182 18.6386 12.1361C19.0722 12.0928 19.289 12.0711 19.4583 11.9838C19.6734 11.8729 19.841 11.6877 19.93 11.4626C20 11.2855 20 11.0676 20 10.6319V9.36824C20 8.93239 20 8.71447 19.9299 8.53729C19.841 8.31228 19.6734 8.12716 19.4584 8.01624C19.2891 7.92891 19.0722 7.90722 18.6385 7.86385C17.8176 7.78176 17.4072 7.74072 17.182 7.56893C16.8964 7.35102 16.7496 6.99662 16.7975 6.64056C16.8352 6.35984 17.0964 6.0406 17.6188 5.4021C17.8948 5.06478 18.0328 4.89612 18.0908 4.71464C18.1644 4.48415 18.152 4.23478 18.0558 4.01275C17.98 3.83794 17.8259 3.68385 17.5178 3.37567L16.6243 2.4822C16.3161 2.17402 16.162 2.01994 15.9872 1.94419C15.7652 1.84798 15.5158 1.83555 15.2853 1.90918C15.1038 1.96716 14.9352 2.10515 14.5979 2.38113C13.9594 2.90352 13.6402 3.16472 13.3595 3.20248C13.0034 3.25038 12.649 3.10358 12.4311 2.81793C12.2593 2.59274 12.2182 2.1823 12.1361 1.36144Z" fill="#929292"/>
<circle cx="10" cy="10" r="3" fill="white"/>
</svg>
