<svg width="24" height="24" viewBox="0 0 24 24" fill="none" xmlns="http://www.w3.org/2000/svg">
<path fill-rule="evenodd" clip-rule="evenodd" d="M14.5634 1.63373C14.494 0.940095 14.4593 0.593279 14.2608 0.356855C14.2021 0.286995 14.1341 0.225493 14.0588 0.17406C13.8038 0 13.4552 0 12.7581 0H11.2417C10.5448 0 10.1963 0 9.94133 0.17399C9.8659 0.22546 9.79788 0.28702 9.73916 0.356952C9.54066 0.593347 9.50599 0.940087 9.43664 1.63357C9.30483 2.95171 9.23892 3.61079 8.84962 3.87325C8.73842 3.94823 8.61327 4.00007 8.48161 4.02569C8.02075 4.11537 7.50804 3.69588 6.48263 2.85691C5.94303 2.41542 5.67323 2.19468 5.36563 2.16792C5.27476 2.16001 5.18323 2.16458 5.0936 2.18149C4.79019 2.23872 4.54372 2.48519 4.05078 2.97812L2.9788 4.05011C2.48573 4.54317 2.2392 4.7897 2.182 5.09321C2.16512 5.18274 2.16056 5.27416 2.16845 5.36493C2.19517 5.67262 2.41595 5.94248 2.85753 6.48218C3.69679 7.50794 4.11642 8.02082 4.02653 8.48187C4.00091 8.61328 3.94917 8.7382 3.87436 8.84924C3.61191 9.23881 2.95256 9.30474 1.63386 9.43661C0.940098 9.50599 0.593215 9.54068 0.356765 9.73932C0.286972 9.79795 0.225524 9.86585 0.174127 9.94113C0 10.1962 0 10.5448 0 11.242V12.7581C0 13.4552 0 13.8038 0.174059 14.0588C0.225492 14.1341 0.286996 14.2021 0.356857 14.2608C0.59328 14.4593 0.940093 14.494 1.63372 14.5634C2.95215 14.6952 3.61136 14.7611 3.87382 15.1506C3.94871 15.2617 4.0005 15.3867 4.02612 15.5183C4.1159 15.9792 3.69638 16.492 2.85733 17.5175C2.41589 18.057 2.19517 18.3268 2.16841 18.6344C2.1605 18.7253 2.16507 18.8168 2.18198 18.9064C2.23922 19.2098 2.48568 19.4563 2.9786 19.9492L4.05073 21.0213C4.54367 21.5143 4.79013 21.7607 5.09355 21.818C5.18318 21.8349 5.27471 21.8395 5.36558 21.8316C5.67318 21.8048 5.94295 21.5841 6.48249 21.1426C7.50802 20.3036 8.02079 19.884 8.48176 19.9738C8.61327 19.9994 8.73829 20.0512 8.8494 20.1261C9.23886 20.3886 9.30478 21.0478 9.43663 22.3663C9.50599 23.0599 9.54067 23.4067 9.73925 23.6432C9.79792 23.713 9.86587 23.7745 9.94122 23.8259C10.1962 24 10.5448 24 11.2419 24H12.758C13.4552 24 13.8038 24 14.0589 23.8259C14.1342 23.7745 14.202 23.713 14.2607 23.6433C14.4593 23.4068 14.494 23.0599 14.5634 22.366C14.6953 21.0474 14.7612 20.3881 15.1506 20.1256C15.2617 20.0508 15.3868 19.999 15.5183 19.9733C15.9793 19.8836 16.492 20.3031 17.5175 21.1421C18.057 21.5835 18.3268 21.8042 18.6343 21.831C18.7252 21.8389 18.8168 21.8344 18.9064 21.8174C19.2098 21.7602 19.4563 21.5137 19.9492 21.0208L21.0215 19.9485C21.5143 19.4557 21.7607 19.2094 21.8179 18.9061C21.8349 18.8163 21.8395 18.7246 21.8315 18.6336C21.8047 18.3262 21.5841 18.0565 21.1428 17.5171C20.304 16.4919 19.8846 15.9793 19.9742 15.5184C19.9998 15.3868 20.0517 15.2616 20.1267 15.1503C20.3892 14.7611 21.0482 14.6952 22.3664 14.5634C23.0599 14.494 23.4067 14.4593 23.6431 14.2608C23.713 14.2021 23.7745 14.1341 23.826 14.0587C24 13.8037 24 13.4552 24 12.7583V11.2419C24 10.5448 24 10.1962 23.8259 9.94121C23.7745 9.86587 23.713 9.79792 23.6432 9.73925C23.4067 9.54067 23.0599 9.50599 22.3662 9.43662C21.0478 9.30478 20.3886 9.23886 20.1261 8.84941C20.0512 8.7383 19.9994 8.61327 19.9738 8.48174C19.884 8.02078 20.3035 7.50803 21.1426 6.48252C21.584 5.943 21.8047 5.67324 21.8315 5.36565C21.8394 5.27477 21.8348 5.18323 21.8179 5.09358C21.7607 4.79018 21.5142 4.54372 21.0213 4.0508L19.9492 2.97864C19.4562 2.48573 19.2098 2.23927 18.9064 2.18203C18.8167 2.16512 18.7252 2.16055 18.6343 2.16846C18.3267 2.19523 18.057 2.41594 17.5174 2.85736C16.492 3.69639 15.9792 4.11591 15.5183 4.02613C15.3867 4.00051 15.2617 3.94871 15.1506 3.87382C14.7611 3.61136 14.6952 2.95215 14.5634 1.63373Z" fill="#A1BBFF"/>
<circle cx="12" cy="12" r="3.6" fill="#4478FF"/>
</svg>
