<svg width="24" height="24" viewBox="0 0 24 24" fill="none" xmlns="http://www.w3.org/2000/svg">
<path d="M4.59375 4.59425V19.4057H19.4052V4.59425H4.59375Z" stroke="#4478FF" stroke-width="1.5"/>
<path d="M4.59428 1.2C2.71967 1.2 1.2 2.71967 1.2 4.59428C1.2 6.4689 2.71967 7.98857 4.59428 7.98857C6.4689 7.98857 7.98857 6.4689 7.98857 4.59428C7.98857 2.71967 6.4689 1.2 4.59428 1.2Z" fill="#A1BBFF"/>
<path d="M19.4057 1.2C17.5311 1.2 16.0114 2.71967 16.0114 4.59428C16.0114 6.4689 17.5311 7.98857 19.4057 7.98857C21.2803 7.98857 22.8 6.4689 22.8 4.59428C22.8 2.71967 21.2803 1.2 19.4057 1.2Z" fill="#A1BBFF"/>
<path d="M4.59428 16.0114C2.71967 16.0114 1.2 17.5311 1.2 19.4057C1.2 21.2803 2.71967 22.8 4.59428 22.8C6.4689 22.8 7.98857 21.2803 7.98857 19.4057C7.98857 17.5311 6.4689 16.0114 4.59428 16.0114Z" fill="#A1BBFF"/>
<path d="M19.4057 16.0114C17.5311 16.0114 16.0114 17.5311 16.0114 19.4057C16.0114 21.2803 17.5311 22.8 19.4057 22.8C21.2803 22.8 22.8 21.2803 22.8 19.4057C22.8 17.5311 21.2803 16.0114 19.4057 16.0114Z" fill="#A1BBFF"/>
</svg>
