<svg width="24" height="24" viewBox="0 0 24 24" fill="none" xmlns="http://www.w3.org/2000/svg">
<path d="M5.00024 12.446V11.7003C5.4832 11.7003 5.81985 11.6023 6.01019 11.4062C6.20337 11.2074 6.29996 10.8849 6.29996 10.4389V9.35226C6.29996 8.87215 6.35962 8.47869 6.47894 8.17187C6.6011 7.86505 6.77865 7.62641 7.01161 7.45596C7.24456 7.2855 7.52865 7.16761 7.86388 7.10226C8.19911 7.03408 8.57979 6.99999 9.00593 6.99999V8.18465C8.6707 8.18465 8.4136 8.23153 8.23462 8.32528C8.05564 8.41619 7.93206 8.55681 7.86388 8.74715C7.79854 8.93749 7.76587 9.18039 7.76587 9.47584V10.8736C7.76587 11.0923 7.72894 11.2969 7.65507 11.4872C7.58121 11.6775 7.44627 11.8452 7.25024 11.99C7.05422 12.1321 6.77439 12.2443 6.41076 12.3267C6.04996 12.4062 5.57979 12.446 5.00024 12.446ZM9.00593 17.8281C8.57979 17.8281 8.19911 17.794 7.86388 17.7258C7.52865 17.6605 7.24456 17.5426 7.01161 17.3722C6.77865 17.2017 6.6011 16.9631 6.47894 16.6562C6.35962 16.3494 6.29996 15.956 6.29996 15.4758V14.3935C6.29996 13.9474 6.20337 13.6264 6.01019 13.4304C5.81985 13.2315 5.4832 13.1321 5.00024 13.1321V12.3864C5.57979 12.3864 6.04996 12.4275 6.41076 12.5099C6.77439 12.5895 7.05422 12.7017 7.25024 12.8466C7.44627 12.9886 7.58121 13.1548 7.65507 13.3452C7.72894 13.5355 7.76587 13.7386 7.76587 13.9545V15.3523C7.76587 15.6477 7.79854 15.8906 7.86388 16.081C7.93206 16.2713 8.05564 16.4133 8.23462 16.5071C8.4136 16.6008 8.6707 16.6477 9.00593 16.6477V17.8281ZM5.00024 13.1321V11.7003H6.3511V13.1321H5.00024Z" fill="white"/>
<path d="M19.605 12.3864V13.1321C19.122 13.1321 18.784 13.2315 18.5908 13.4304C18.4005 13.6264 18.3053 13.9474 18.3053 14.3935V15.4758C18.3053 15.956 18.2442 16.3494 18.122 16.6562C18.0027 16.9631 17.8266 17.2017 17.5936 17.3722C17.3607 17.5426 17.0766 17.6605 16.7414 17.7258C16.4061 17.794 16.0255 17.8281 15.5993 17.8281V16.6477C15.9345 16.6477 16.1917 16.6008 16.3706 16.5071C16.5496 16.4133 16.6718 16.2713 16.7371 16.081C16.8053 15.8906 16.8394 15.6477 16.8394 15.3523V13.9545C16.8394 13.7386 16.8763 13.5355 16.9502 13.3452C17.024 13.1548 17.159 12.9886 17.355 12.8466C17.551 12.7017 17.8294 12.5895 18.1902 12.5099C18.5539 12.4275 19.0255 12.3864 19.605 12.3864ZM15.5993 6.99999C16.0255 6.99999 16.4061 7.03408 16.7414 7.10226C17.0766 7.16761 17.3607 7.2855 17.5936 7.45596C17.8266 7.62641 18.0027 7.86505 18.122 8.17187C18.2442 8.47869 18.3053 8.87215 18.3053 9.35226V10.4389C18.3053 10.8849 18.4005 11.2074 18.5908 11.4062C18.784 11.6023 19.122 11.7003 19.605 11.7003V12.446C19.0255 12.446 18.5539 12.4062 18.1902 12.3267C17.8294 12.2443 17.551 12.1321 17.355 11.99C17.159 11.8452 17.024 11.6775 16.9502 11.4872C16.8763 11.2969 16.8394 11.0923 16.8394 10.8736V9.47584C16.8394 9.18039 16.8053 8.93749 16.7371 8.74715C16.6718 8.55681 16.5496 8.41619 16.3706 8.32528C16.1917 8.23153 15.9345 8.18465 15.5993 8.18465V6.99999ZM19.605 11.7003V13.1321H18.2542V11.7003H19.605Z" fill="white"/>
</svg>
