<svg width="20" height="20" viewBox="0 0 20 20" fill="none" xmlns="http://www.w3.org/2000/svg">
<path d="M3.82812 3.82861V16.1715H16.171V3.82861H3.82812Z" stroke="white" stroke-width="1.5"/>
<path d="M3.82857 1C2.26639 1 1 2.26639 1 3.82857C1 5.39075 2.26639 6.65714 3.82857 6.65714C5.39075 6.65714 6.65714 5.39075 6.65714 3.82857C6.65714 2.26639 5.39075 1 3.82857 1Z" fill="#929292"/>
<path d="M16.1714 1C14.6093 1 13.3429 2.26639 13.3429 3.82857C13.3429 5.39075 14.6093 6.65714 16.1714 6.65714C17.7336 6.65714 19 5.39075 19 3.82857C19 2.26639 17.7336 1 16.1714 1Z" fill="#929292"/>
<path d="M3.82857 13.3429C2.26639 13.3429 1 14.6093 1 16.1714C1 17.7336 2.26639 19 3.82857 19C5.39075 19 6.65714 17.7336 6.65714 16.1714C6.65714 14.6093 5.39075 13.3429 3.82857 13.3429Z" fill="#929292"/>
<path d="M16.1714 13.3429C14.6093 13.3429 13.3429 14.6093 13.3429 16.1714C13.3429 17.7336 14.6093 19 16.1714 19C17.7336 19 19 17.7336 19 16.1714C19 14.6093 17.7336 13.3429 16.1714 13.3429Z" fill="#929292"/>
</svg>
