<svg xmlns="http://www.w3.org/2000/svg" width="22" height="22" viewBox="0 0 22 22" fill="none">
  <path d="M1.5 2.75V20.75H6.5V2.75C6.5 1.65 6 0.75 4.5 0.75H3.5C2 0.75 1.5 1.65 1.5 2.75Z" fill="#DCDCDC"/>
  <path d="M8.5 8.75V20.75H13.5V8.75C13.5 7.65 13 6.75 11.5 6.75H10.5C9 6.75 8.5 7.65 8.5 8.75Z" fill="#DCDCDC"/>
  <path d="M15.5 13.75V20.75H20.5V13.75C20.5 12.65 20 11.75 18.5 11.75H17.5C16 11.75 15.5 12.65 15.5 13.75Z" fill="#8B8B8B"/>
  <path d="M21 21.25H1C0.59 21.25 0.25 20.91 0.25 20.5C0.25 20.09 0.59 19.75 1 19.75H21C21.41 19.75 21.75 20.09 21.75 20.5C21.75 20.91 21.41 21.25 21 21.25Z" fill="#8B8B8B"/>
</svg>