<svg width="30" height="30" viewBox="0 0 30 30" fill="none" xmlns="http://www.w3.org/2000/svg">
<path d="M3.69336 14.2891V15.6973C4.77344 15.6973 5.14941 16.1143 5.14258 17.1465V18.5273C5.14941 20.5234 6.03809 21.166 7.94531 21.166V20.0039C6.81738 20.0039 6.5166 19.5186 6.50977 18.459V16.6953C6.5166 15.9365 6.24316 15.3213 5.0332 15.082V14.918C6.24316 14.6719 6.5166 14.0566 6.50977 13.291V11.541C6.5166 10.4746 6.81738 9.98926 7.94531 9.99609V8.83398C6.03809 8.83398 5.14941 9.47656 5.14258 11.4727V12.8535C5.14941 13.8721 4.78711 14.2822 3.74805 14.2891H3.69336Z" fill="#929292"/>
<path d="M8.69727 14.2891V15.6973C9.77734 15.6973 10.1533 16.1143 10.1465 17.1465V18.5273C10.1533 20.5234 11.042 21.166 12.9492 21.166V20.0039C11.8213 20.0039 11.5205 19.5186 11.5137 18.459V16.6953C11.5205 15.9365 11.2471 15.3213 10.0371 15.082V14.918C11.2471 14.6719 11.5205 14.0566 11.5137 13.291V11.541C11.5205 10.4746 11.8213 9.98926 12.9492 9.99609V8.83398C11.042 8.83398 10.1533 9.47656 10.1465 11.4727V12.8535C10.1533 13.8721 9.79102 14.2822 8.75195 14.2891H8.69727Z" fill="#929292"/>
<path d="M21.3027 15.7109V14.3027C20.2227 14.3027 19.8467 13.8857 19.8535 12.8535V11.4727C19.8467 9.47656 18.958 8.83398 17.0508 8.83398V9.99609C18.1787 9.99609 18.4795 10.4814 18.4863 11.541V13.3047C18.4795 14.0635 18.7529 14.6787 19.9629 14.918V15.082C18.7529 15.3281 18.4795 15.9434 18.4863 16.709V18.459C18.4795 19.5254 18.1787 20.0107 17.0508 20.0039V21.166C18.958 21.166 19.8467 20.5234 19.8535 18.5273V17.1465C19.8467 16.1279 20.209 15.7178 21.248 15.7109H21.3027Z" fill="#929292"/>
<path d="M26.3066 15.7109V14.3027C25.2266 14.3027 24.8506 13.8857 24.8574 12.8535V11.4727C24.8506 9.47656 23.9619 8.83398 22.0547 8.83398V9.99609C23.1826 9.99609 23.4834 10.4814 23.4902 11.541V13.3047C23.4834 14.0635 23.7568 14.6787 24.9668 14.918V15.082C23.7568 15.3281 23.4834 15.9434 23.4902 16.709V18.459C23.4834 19.5254 23.1826 20.0107 22.0547 20.0039V21.166C23.9619 21.166 24.8506 20.5234 24.8574 18.5273V17.1465C24.8506 16.1279 25.2129 15.7178 26.252 15.7109H26.3066Z" fill="#929292"/>
</svg>
