<svg width="24" height="24" viewBox="0 0 24 24" fill="none" xmlns="http://www.w3.org/2000/svg">
<path d="M16.6058 23H7.3942C3.38819 23 1 20.6118 1 16.6058V7.3942C1 3.38819 3.38819 1 7.3942 1H16.6058C20.6118 1 23 3.38819 23 7.3942V16.6058C23 20.6118 20.6118 23 16.6058 23Z" fill="#4478FF"/>
<path d="M17.0952 10.2258C16.4603 12.0368 14.7534 13.2546 12.8382 13.2546C12.8278 13.2546 12.8278 13.2546 12.8174 13.2546L10.6733 13.2442C10.6733 13.2442 10.6733 13.2442 10.6629 13.2442C9.87185 13.2442 9.18491 13.775 8.97675 14.5348C9.90308 14.8263 10.5797 15.6901 10.5797 16.7102C10.5797 17.9696 9.54923 19 8.28983 19C7.03043 19 6 17.9696 6 16.7102C6 15.7838 6.56203 14.9824 7.35306 14.6285V10.1113C6.56203 9.79905 6 9.02884 6 8.13372C6 6.95758 6.95755 6 8.13368 6C9.30981 6 10.2674 6.95758 10.2674 8.13372C10.2674 9.03925 9.70533 9.79905 8.9143 10.1113V12.2138C9.4243 11.8911 10.028 11.7038 10.6629 11.7038H10.6733L12.8174 11.7142C14.0456 11.7558 15.1385 10.9648 15.5756 9.81986C15.0656 9.42435 14.7325 8.82067 14.7325 8.13372C14.7325 6.95758 15.6901 6 16.8662 6C18.0424 6 18.9999 6.95758 18.9999 8.13372C19.0103 9.21619 18.1672 10.1113 17.0952 10.2258Z" fill="white"/>
</svg>
