<svg width="8" height="12" viewBox="0 0 8 12" fill="none" xmlns="http://www.w3.org/2000/svg">
<path d="M0.355604 6.83365L5.1556 11.6337C5.2663 11.7483 5.39871 11.8397 5.54512 11.9026C5.69152 11.9655 5.84899 11.9986 6.00832 12C6.16766 12.0013 6.32567 11.971 6.47315 11.9106C6.62062 11.8503 6.75461 11.7612 6.86728 11.6485C6.97995 11.5359 7.06905 11.4019 7.12939 11.2544C7.18973 11.1069 7.22009 10.9489 7.2187 10.7896C7.21732 10.6302 7.18422 10.4728 7.12132 10.3264C7.05843 10.18 6.96702 10.0476 6.8524 9.93685L2.9008 5.98526L6.8524 2.03365C7.07099 1.80733 7.19195 1.50421 7.18921 1.18957C7.18648 0.874938 7.06028 0.573963 6.83779 0.351473C6.6153 0.128983 6.31432 0.00277897 5.99969 4.47694e-05C5.68505 -0.00268943 5.38193 0.118264 5.1556 0.336854L0.355604 5.13685C0.130639 5.36189 0.00426129 5.66706 0.00426128 5.98525C0.00426127 6.30345 0.130639 6.60862 0.355604 6.83365Z" fill="#B5B4B4"/>
</svg>
