<svg width="30" height="30" viewBox="0 0 30 30" fill="none" xmlns="http://www.w3.org/2000/svg">
<path fill-rule="evenodd" clip-rule="evenodd" d="M8.5 8.72222C8.5 8.32335 8.82335 8 9.22222 8H20.7778C21.1766 8 21.5 8.32335 21.5 8.72222V10.6481C21.5 11.047 21.1766 11.3704 20.7778 11.3704C20.3789 11.3704 20.0556 11.047 20.0556 10.6481V9.44444H15.7222V21.4815H15.963C16.3618 21.4815 16.6852 21.8048 16.6852 22.2037C16.6852 22.6026 16.3618 22.9259 15.963 22.9259H14.037C13.6382 22.9259 13.3148 22.6026 13.3148 22.2037C13.3148 21.8048 13.6382 21.4815 14.037 21.4815H14.2778V9.44444H9.94444V10.6481C9.94444 11.047 9.62109 11.3704 9.22222 11.3704C8.82335 11.3704 8.5 11.047 8.5 10.6481V8.72222Z" fill="#929292"/>
</svg>
