<svg width="8" height="12" viewBox="0 0 8 12" fill="none" xmlns="http://www.w3.org/2000/svg">
<path d="M6.86315 6.83365L2.06315 11.6337C1.95245 11.7483 1.82004 11.8397 1.67363 11.9026C1.52723 11.9655 1.36976 11.9986 1.21043 12C1.05109 12.0013 0.893078 11.971 0.745603 11.9106C0.598127 11.8503 0.464144 11.7612 0.351473 11.6485C0.238801 11.5359 0.149697 11.4019 0.0893595 11.2544C0.0290225 11.1069 -0.00133932 10.9489 4.52555e-05 10.7896C0.00142983 10.6302 0.0345345 10.4728 0.0974253 10.3264C0.160316 10.18 0.251733 10.0476 0.366345 9.93685L4.31795 5.98526L0.366345 2.03365C0.147755 1.80733 0.0268022 1.50421 0.0295363 1.18957C0.0322703 0.874938 0.158474 0.573963 0.380964 0.351473C0.603453 0.128983 0.904429 0.00277897 1.21906 4.47694e-05C1.5337 -0.00268943 1.83682 0.118264 2.06315 0.336854L6.86315 5.13685C7.08811 5.36189 7.21449 5.66706 7.21449 5.98525C7.21449 6.30345 7.08811 6.60862 6.86315 6.83365Z" fill="#B5B4B4"/>
</svg>
