<svg width="24" height="24" viewBox="0 0 24 24" fill="none" xmlns="http://www.w3.org/2000/svg">
<path fill-rule="evenodd" clip-rule="evenodd" d="M6.80005 6.60732C6.80005 6.28822 7.05873 6.02954 7.37783 6.02954H16.6223C16.9414 6.02954 17.2 6.28822 17.2 6.60732V8.14806C17.2 8.46716 16.9414 8.72584 16.6223 8.72584C16.3032 8.72584 16.0445 8.46716 16.0445 8.14806V7.1851H12.5778V16.8147H12.7704C13.0895 16.8147 13.3482 17.0734 13.3482 17.3925C13.3482 17.7116 13.0895 17.9703 12.7704 17.9703H11.2297C10.9106 17.9703 10.6519 17.7116 10.6519 17.3925C10.6519 17.0734 10.9106 16.8147 11.2297 16.8147H11.4223V7.1851H7.9556V8.14806C7.9556 8.46716 7.69692 8.72584 7.37783 8.72584C7.05873 8.72584 6.80005 8.46716 6.80005 8.14806V6.60732Z" fill="#929292"/>
</svg>
