<svg width="20" height="20" viewBox="0 0 20 20" fill="none" xmlns="http://www.w3.org/2000/svg">
<path d="M1.28289 16.9074L1.2794 16.9144C1.14844 17.1764 1.18183 17.4908 1.36509 17.7193C1.54836 17.9478 1.84852 18.0485 2.13267 17.9774L2.30336 17.935C2.41315 17.9078 2.57068 17.8689 2.76134 17.8222C3.14282 17.7288 3.65609 17.6044 4.1844 17.4801C4.71366 17.3555 5.25385 17.2321 5.69057 17.1402C5.90943 17.0941 6.09698 17.057 6.24171 17.0319C6.35963 17.0114 6.42128 17.0039 6.44283 17.0013C6.45175 17.0002 6.4538 17 6.45012 17C6.58981 17 6.7961 17.0373 7.0915 17.1252C7.33703 17.1981 7.59957 17.2917 7.89467 17.3969L8.06294 17.4568C8.74858 17.7001 9.61862 18 10.4501 18C15.0065 18 18.7001 14.3063 18.7001 9.75C18.7001 5.19365 15.0065 1.5 10.4501 1.5C5.89378 1.5 2.20013 5.19365 2.20013 9.75C2.20013 10.2495 2.32999 10.9127 2.44385 11.4943L2.46401 11.5974C2.59348 12.2607 2.70012 12.8379 2.70012 13.25C2.70012 13.3662 2.64476 13.6381 2.50424 14.0597C2.37289 14.4537 2.19433 14.9012 2.01076 15.3296C1.82804 15.7559 1.64469 16.1532 1.50669 16.4446C1.43782 16.59 1.38053 16.7084 1.34065 16.79C1.32072 16.8308 1.30515 16.8624 1.29468 16.8836L1.28289 16.9074Z" fill="#DFE8FF"/>
<circle cx="7.7002" cy="10" r="1" fill="#4478FF"/>
<circle cx="10.7002" cy="10" r="1" fill="#4478FF"/>
<circle cx="13.7002" cy="10" r="1" fill="#4478FF"/>
</svg>
