<svg width="24" height="24" viewBox="0 0 24 24" fill="none" xmlns="http://www.w3.org/2000/svg">
<path d="M1.53923 20.2889L1.53505 20.2973C1.3779 20.6116 1.41796 20.989 1.63788 21.2632C1.85781 21.5373 2.21799 21.6582 2.55897 21.5729L2.7638 21.522C2.89555 21.4894 3.08459 21.4427 3.31337 21.3867C3.77115 21.2746 4.38708 21.1252 5.02105 20.9761C5.65616 20.8266 6.30439 20.6785 6.82845 20.5682C7.09108 20.5129 7.31614 20.4685 7.48982 20.4383C7.63132 20.4136 7.70531 20.4047 7.73117 20.4016C7.74186 20.4003 7.74433 20.4 7.73991 20.4C7.90754 20.4 8.15509 20.4448 8.50957 20.5502C8.8042 20.6378 9.11925 20.7501 9.47338 20.8763L9.67529 20.9482C10.4981 21.2401 11.5421 21.6 12.5399 21.6C18.0075 21.6 22.4399 17.1676 22.4399 11.7C22.4399 6.23238 18.0075 1.8 12.5399 1.8C7.0723 1.8 2.63992 6.23238 2.63992 11.7C2.63992 12.2994 2.79575 13.0953 2.93239 13.7932L2.95658 13.9169C3.11194 14.7128 3.23991 15.4055 3.23991 15.9C3.23991 16.0395 3.17348 16.3658 3.00485 16.8716C2.84723 17.3445 2.63296 17.8815 2.41268 18.3955C2.19342 18.9071 1.9734 19.3839 1.8078 19.7335C1.72515 19.908 1.65641 20.05 1.60855 20.148C1.58463 20.197 1.56595 20.2349 1.55338 20.2603L1.53923 20.2889Z" fill="#A1BBFF"/>
<circle cx="9.24001" cy="12" r="1.2" fill="#4478FF"/>
<circle cx="12.84" cy="12" r="1.2" fill="#4478FF"/>
<circle cx="16.44" cy="12" r="1.2" fill="#4478FF"/>
</svg>
