<svg width="24" height="24" viewBox="0 0 24 24" fill="none" xmlns="http://www.w3.org/2000/svg">
<path d="M0.608683 21.4068L0.604097 21.416C0.431983 21.7603 0.475862 22.1736 0.716721 22.4739C0.957596 22.7741 1.35208 22.9065 1.72554 22.8131L1.94988 22.7574C2.09417 22.7216 2.30122 22.6705 2.55179 22.6091C3.05317 22.4863 3.72776 22.3228 4.42212 22.1594C5.11771 21.9958 5.82769 21.8335 6.40166 21.7127C6.6893 21.6522 6.9358 21.6035 7.12602 21.5704C7.281 21.5434 7.36203 21.5337 7.39035 21.5302C7.40207 21.5288 7.40477 21.5285 7.39993 21.5285C7.58352 21.5285 7.85465 21.5776 8.24289 21.693C8.56559 21.7889 8.91064 21.9119 9.2985 22.0502L9.51964 22.1289C10.4208 22.4486 11.5643 22.8428 12.6571 22.8428C18.6455 22.8428 23.5 17.9883 23.5 11.9999C23.5 6.01152 18.6455 1.15698 12.6571 1.15698C6.66873 1.15698 1.8142 6.01151 1.8142 11.9999C1.8142 12.6563 1.98487 13.5281 2.13452 14.2924L2.16103 14.4279C2.33118 15.2997 2.47134 16.0583 2.47134 16.5999C2.47134 16.7526 2.39858 17.11 2.21389 17.6641C2.04126 18.182 1.80658 18.7701 1.56532 19.333C1.32517 19.8934 1.0842 20.4156 0.902829 20.7985C0.812305 20.9896 0.737014 21.1452 0.684598 21.2525C0.658399 21.3062 0.637939 21.3477 0.624176 21.3755L0.608683 21.4068Z" fill="#B5B4B4"/>
<circle cx="8.85773" cy="12.2571" r="1.25715" fill="#636364"/>
<circle cx="12.6292" cy="12.2571" r="1.25715" fill="#636364"/>
<circle cx="16.4007" cy="12.2571" r="1.25715" fill="#636364"/>
</svg>
