<svg width="9" height="11" viewBox="0 0 9 11" fill="none" xmlns="http://www.w3.org/2000/svg">
<path d="M4.46895 5.74296C5.21378 5.74296 5.83447 5.49595 6.39309 5.00194C7.01378 4.50792 7.32412 3.70514 7.32412 2.90236C7.32412 2.28483 7.13792 1.66731 6.7655 1.23505C6.26895 0.494018 5.46205 0 4.46895 0C2.91723 0 1.61378 1.2968 1.61378 2.84061C1.61378 4.44617 2.91723 5.74296 4.46895 5.74296Z" fill="#4478FF"/>
<path d="M6.14483 6.08442C5.95862 6.08442 5.83448 6.02267 5.64828 6.02267H3.28966C1.48966 6.02267 0 7.50473 0 9.29554C0 9.72781 0.186207 10.0366 0.496552 10.2836C0.993103 10.5923 2.17241 10.9629 4.46897 10.9629C6.76552 10.9629 7.88276 10.5923 8.44138 10.2836C8.44138 10.2836 8.50345 10.2218 8.56552 10.2218C8.81379 10.0366 9 9.72781 9 9.29554C8.93793 7.68999 7.75862 6.33143 6.14483 6.08442Z" fill="#4478FF"/>
</svg>
